<?xml version="1.0" encoding="UTF-8" standalone="no"?>
<!DOCTYPE svg PUBLIC "-//W3C//DTD SVG 1.1//EN" "http://www.w3.org/Graphics/SVG/1.1/DTD/svg11.dtd">
<!-- Created with Vectornator (http://vectornator.io/) -->
<svg height="100%" stroke-miterlimit="10" style="fill-rule:nonzero;clip-rule:evenodd;stroke-linecap:round;stroke-linejoin:round;" version="1.1" viewBox="0 0 180 180" width="100%" xml:space="preserve" xmlns="http://www.w3.org/2000/svg" xmlns:vectornator="http://vectornator.io" xmlns:xlink="http://www.w3.org/1999/xlink">
<defs/>
<g id="Layer-1" vectornator:layerName="Layer 1">
<path d="M72.4548 109.485C85.3901 91.3817 71.3704 95.3823 89.822 95.3823C108.274 95.3823 96.3761 93.3564 108.32 110.139C117.514 123.058 108.274 157.786 89.822 157.786C71.3704 157.786 63.2335 122.39 72.4548 109.485Z" fill="#FFFFFF" fill-rule="nonzero" opacity="1" stroke="#FFFFFF" stroke-linecap="butt" stroke-linejoin="round" stroke-width="10" vectornator:layerName="Oval 1"/>
<path d="M80.2995 66.9161C80.2995 60.6971 84.6803 48.2433 90.0843 48.2433C95.4883 48.2433 99.8692 60.6971 99.8692 66.9161C99.8692 73.1351 95.4883 78.1767 90.0843 78.1767C84.6803 78.1767 80.2995 73.1351 80.2995 66.9161Z" fill="#FFFFFF" fill-rule="nonzero" opacity="1" stroke="#FFFFFF" stroke-linecap="butt" stroke-linejoin="round" stroke-width="10" vectornator:layerName="Oval 2"/>
<g opacity="1" vectornator:layerName="Curve 6">
<path d="M87.2882 57.2696C89.4926 56.0297 96.1215 43.6902 91.8764 50.0579" fill="#FFFFFF" fill-rule="nonzero" stroke="none"/>
<path d="M93.3438 48.2188C93.3229 48.1858 93.255 48.3026 93.2188 48.3125C93.213 48.3141 93.1936 48.31 93.1875 48.3125C93.1768 48.3381 93.1358 48.3494 93.125 48.375C93.0135 48.4581 92.925 48.4785 92.8125 48.625C92.704 48.7662 92.5716 48.9177 92.4688 49.0625C92.4168 49.1357 92.0957 49.6001 92.0625 49.6562C90.5193 52.2677 92.0649 49.6555 91.8125 50.0312C91.8075 50.0564 91.8364 50.0861 91.875 50.0938C91.9136 50.1014 91.9325 50.0876 91.9375 50.0625C92.0265 49.9416 92.1024 49.8107 92.1875 49.6875C92.4281 49.3393 92.6795 48.9921 92.9375 48.6562C92.9917 48.5857 93.0278 48.5428 93.0938 48.4688C92.1437 50.6744 90.6775 52.7363 89.25 54.6562C89.1388 54.8058 89.0205 54.9462 88.9062 55.0938C88.4638 55.8581 88.0329 56.6243 87.625 57.4062C87.6128 57.4297 87.8269 57.257 88 57.0938C88.1332 56.9681 88.284 56.8237 88.4062 56.6875C88.7701 56.282 89.0937 55.8521 89.4062 55.4062C90.426 53.9513 91.3161 52.3764 92.1562 50.8125C92.5091 50.1556 92.8588 49.4968 93.1562 48.8125C93.2068 48.6961 93.431 48.3564 93.3438 48.2188ZM88.9062 55.0938C89.1567 54.6611 89.4776 54.2582 89.625 53.7812C89.7774 53.2879 88.9076 54.9829 88.75 55.2812C88.8007 55.217 88.8561 55.1585 88.9062 55.0938ZM88.75 55.2812C88.5005 55.5975 88.2638 55.9151 88 56.2188C87.8431 56.3994 87.6767 56.5886 87.5 56.75C87.4135 56.829 87.2329 56.9628 87.25 56.9375C88.8062 54.6353 87.2405 56.9606 87.125 57.0312C87.0366 57.0901 87.0345 57.2389 87.125 57.375C87.2155 57.511 87.3491 57.5901 87.4375 57.5312C88.7438 55.2897 88.5136 55.7287 88.75 55.2812Z" fill="#FFFFFF" stroke="none"/>
</g>
<path d="M99.4833 78.5681L135.298 63.5697" fill="none" opacity="1" stroke="#FFFFFF" stroke-linecap="butt" stroke-linejoin="round" stroke-width="7.04596" vectornator:layerName="Line 1"/>
<path d="M96.1631 78.5681L140.952 79.0619" fill="none" opacity="1" stroke="#FFFFFF" stroke-linecap="butt" stroke-linejoin="round" stroke-width="7.04596" vectornator:layerName="Line 2"/>
<path d="M89.8746 79.0619L140.952 97.5411" fill="none" opacity="1" stroke="#FFFFFF" stroke-linecap="butt" stroke-linejoin="round" stroke-width="7.04596" vectornator:layerName="Line 3"/>
<path d="M101.955 88.609L140.952 119.804" fill="none" opacity="1" stroke="#FFFFFF" stroke-linecap="butt" stroke-linejoin="round" stroke-width="7.04596" vectornator:layerName="Line 4"/>
<path d="M140.952 97.5411L161.495 119.804" fill="none" opacity="1" stroke="#FFFFFF" stroke-linecap="butt" stroke-linejoin="round" stroke-width="7.04596" vectornator:layerName="Line 5"/>
<path d="M140.952 119.804L136.385 143.179" fill="none" opacity="1" stroke="#FFFFFF" stroke-linecap="butt" stroke-linejoin="round" stroke-width="7.04596" vectornator:layerName="Line 6"/>
<path d="M140.952 79.0619L161.495 53.6202" fill="none" opacity="1" stroke="#FFFFFF" stroke-linecap="butt" stroke-linejoin="round" stroke-width="7.04596" vectornator:layerName="Line 7"/>
<path d="M135.298 63.5697L135.298 30.8236" fill="none" opacity="1" stroke="#FFFFFF" stroke-linecap="butt" stroke-linejoin="round" stroke-width="7.04596" vectornator:layerName="Line 8"/>
<g opacity="1" vectornator:layerName="Curve 7">
<path d="M140.799 118.497C142.693 120.39 141.928 117.087 143.073 119.95" fill="#FFFFFF" fill-rule="nonzero" stroke="none"/>
<path d="M141.125 117.531C140.868 117.554 140.573 117.672 140.312 117.875C139.792 118.281 139.58 118.881 139.844 119.219C141.345 119.633 140.978 119.183 141.344 119.656C141.598 119.985 140.54 119.464 140.125 119.438C140.021 119.431 140.312 119.549 140.406 119.594C140.493 119.635 140.564 119.661 140.656 119.688C141.035 119.796 141.431 119.816 141.812 119.688C142.041 119.611 142.237 119.478 142.406 119.312C142.485 119.392 142.606 119.439 142.625 119.469C142.676 119.55 142.815 119.727 142.719 119.719C141.752 119.636 142.741 119.735 142.875 120.062C142.915 120.139 143.039 120.155 143.156 120.094C143.274 120.032 143.321 119.92 143.281 119.844C142.654 119.001 142.752 119.162 142.656 119C142.76 119.117 142.975 119.348 143.156 119.5C143.231 119.563 143.059 119.344 143.031 119.25C143.007 119.169 143.012 119.084 143 119C142.969 118.784 142.964 118.564 142.812 118.406C142.551 118.135 142.149 118.441 141.938 118.594C142.038 118.556 142.117 118.491 142.156 118.438C142.188 118.395 142.04 118.17 142.031 118.156C141.993 118.099 141.865 117.944 141.906 118C142.362 118.617 141.926 117.977 141.75 117.75C141.618 117.581 141.382 117.509 141.125 117.531ZM142.5 118.812C142.471 118.761 142.612 118.926 142.625 118.938C142.62 118.941 142.63 118.965 142.625 118.969C142.604 118.933 142.54 118.884 142.5 118.812Z" fill="#FFFFFF" stroke="none"/>
</g>
<g opacity="1" vectornator:layerName="Curve 8">
<path d="M140.61 118.118C142.054 118.439 142.35 119.824 142.694 121.086" fill="#FFFFFF" fill-rule="nonzero" stroke="none"/>
<path d="M140.688 117.188C140.461 117.267 140.219 117.444 140.031 117.688C139.656 118.174 139.621 118.756 139.938 119C141.211 120.093 140.74 119.65 141.219 120.094C141.566 120.415 140.53 119.444 140.25 119.062C140.202 118.997 140.389 119.076 140.469 119.094C140.829 119.174 140.667 119.13 141 119.281C141.471 119.495 141.87 119.847 142.156 120.281C142.215 120.371 142.272 120.463 142.312 120.562C142.353 120.664 142.498 120.935 142.406 120.875C141.544 120.312 142.383 120.87 142.469 121.188C142.504 121.265 142.63 121.273 142.75 121.219C142.87 121.164 142.942 121.078 142.906 121C142.096 119.125 142.637 119.687 142.094 119.125C141.696 118.713 142.551 120.147 142.812 120.656C142.863 120.755 142.77 120.453 142.75 120.344C142.702 120.084 142.701 119.888 142.688 119.625C142.657 119.034 142.597 118.401 142.25 117.906C142.177 117.802 142.094 117.71 142 117.625C141.897 117.532 141.62 117.241 141.656 117.375C141.985 118.602 141.649 117.402 141.281 117.25C141.123 117.128 140.914 117.108 140.688 117.188Z" fill="#FFFFFF" stroke="none"/>
</g>
<g opacity="1" vectornator:layerName="Curve 9">
<path d="M140.61 118.56C141.619 119.294 141.965 120.055 142.378 121.213" fill="#FFFFFF" fill-rule="nonzero" stroke="none"/>
<path d="M140.875 117.594C140.622 117.628 140.342 117.755 140.094 117.969C139.598 118.395 139.441 119.021 139.719 119.344C140.945 120.338 140.547 119.731 140.938 120.312C141.176 120.668 140.273 119.771 139.969 119.469C139.905 119.406 140.137 119.558 140.219 119.594C140.384 119.667 140.555 119.736 140.719 119.812C141.059 119.973 141.304 120.11 141.594 120.375C141.727 120.497 142.126 120.869 141.969 120.781C141.191 120.349 141.953 120.766 142.156 121.312C142.195 121.389 142.319 121.403 142.438 121.344C142.556 121.284 142.633 121.171 142.594 121.094C142.36 120.378 142.408 120.528 142.375 120.375C142.366 120.25 142.358 120.103 142.344 119.969C142.29 119.481 142.216 118.987 142.031 118.531C141.993 118.436 141.958 118.339 141.906 118.25C141.854 118.16 141.695 117.899 141.719 118C141.966 119.042 141.719 118.005 141.5 117.781C141.361 117.62 141.128 117.56 140.875 117.594Z" fill="#FFFFFF" stroke="none"/>
</g>
<g opacity="1" vectornator:layerName="Curve 10">
<path d="M141.494 117.676C142.592 118.5 142.78 119.322 143.199 120.581" fill="#FFFFFF" fill-rule="nonzero" stroke="none"/>
<path d="M141.781 116.719C141.527 116.751 141.251 116.882 141 117.094C140.499 117.517 140.319 118.112 140.594 118.438C141.792 119.559 141.391 118.937 141.781 119.562C142.016 119.938 141.158 118.935 140.875 118.594C140.815 118.522 141.01 118.708 141.094 118.75C141.18 118.793 141.289 118.801 141.375 118.844C141.78 119.046 142.131 119.318 142.438 119.656C142.564 119.796 142.939 120.196 142.781 120.094C142.013 119.595 142.773 120.092 142.969 120.688C143.006 120.765 143.162 120.776 143.281 120.719C143.4 120.661 143.444 120.546 143.406 120.469C143.211 119.782 143.251 119.96 143.219 119.781C143.253 119.761 143.197 119.427 143.188 119.25C143.16 118.732 143.149 118.239 142.969 117.75C142.931 117.647 142.897 117.534 142.844 117.438C142.789 117.338 142.604 117.045 142.625 117.156C142.836 118.272 142.643 117.155 142.406 116.906C142.269 116.743 142.035 116.687 141.781 116.719Z" fill="#FFFFFF" stroke="none"/>
</g>
<g opacity="1" vectornator:layerName="Curve 11">
<path d="M142.252 117.36C143.254 118.635 143.784 119.77 144.146 121.339" fill="#FFFFFF" fill-rule="nonzero" stroke="none"/>
<path d="M142.656 116.438C142.396 116.44 142.089 116.535 141.812 116.719C141.259 117.087 141.011 117.671 141.25 118.031C142.59 119.736 142.12 118.878 142.594 119.719C142.822 120.124 141.936 119.033 141.781 118.594C141.699 118.362 142.159 118.901 142.344 119.062C142.769 119.434 143.006 119.638 143.344 120.094C143.486 120.286 143.921 120.855 143.75 120.688C142.882 119.839 143.743 120.688 143.938 121.438C143.973 121.516 144.099 121.523 144.219 121.469C144.339 121.415 144.41 121.328 144.375 121.25C144.146 120.311 144.154 120.511 144.125 120.312C144.124 120.195 144.116 119.916 144.094 119.719C144.059 119.42 143.94 118.447 143.875 118.156C143.817 117.897 143.614 117.144 143.656 117.406C143.864 118.695 143.639 117.387 143.25 116.688C143.13 116.508 142.916 116.435 142.656 116.438Z" fill="#FFFFFF" stroke="none"/>
</g>
<g opacity="1" vectornator:layerName="Curve 12">
<path d="M142.946 117.676C143.837 118.566 144.169 119.459 144.273 120.707" fill="#FFFFFF" fill-rule="nonzero" stroke="none"/>
<path d="M143.312 116.719C143.054 116.735 142.734 116.865 142.469 117.062C141.938 117.458 141.743 118.061 142 118.406C143.034 119.605 142.774 118.941 143.031 119.594C143.189 119.993 142.461 118.917 142.219 118.562C142.167 118.487 142.361 118.7 142.438 118.75C142.592 118.85 142.753 118.929 142.906 119.031C143.223 119.244 143.478 119.428 143.719 119.75C143.826 119.893 144.11 120.298 143.969 120.188C143.262 119.634 143.992 120.189 144.062 120.781C144.092 120.86 144.191 120.889 144.312 120.844C144.434 120.798 144.53 120.704 144.5 120.625C144.406 120.036 144.428 120.229 144.406 120.031C144.49 120.225 144.461 119.586 144.469 119.375C144.487 118.844 144.479 118.327 144.344 117.812C144.316 117.707 144.291 117.601 144.25 117.5C144.209 117.4 144.086 117.111 144.094 117.219C144.181 118.358 144.093 117.229 143.906 116.969C143.778 116.796 143.571 116.702 143.312 116.719Z" fill="#FFFFFF" stroke="none"/>
</g>
<g opacity="1" vectornator:layerName="Curve 13">
<path d="M135.827 117.749C134.665 116.781 138.953 118.601 139.875 119.8" fill="#FFFFFF" fill-rule="nonzero" stroke="none"/>
<path d="M136.281 116.594C135.897 116.551 135.508 116.656 135.188 116.875C135.144 116.905 134.974 117.052 134.938 117.094C134.933 117.099 134.904 117.124 134.906 117.125C134.826 117.133 134.773 117.289 134.719 117.375C134.643 117.495 134.377 118.245 134.75 118.344C136.51 118.808 134.775 118.362 134.906 118.5C135.128 118.777 135.583 118.709 136.031 118.469C136.093 118.48 136.156 118.488 136.219 118.5C136.879 118.631 137.519 118.784 138.156 119C137.615 118.86 137.207 118.782 137.469 119.062C137.932 119.558 138.032 119.379 139.312 119.562C139.264 119.523 139.114 119.38 139 119.312C138.825 119.208 138.627 119.136 138.438 119.062C138.92 119.19 139.464 119.355 139.781 119.344C139.959 119.337 139.477 119.118 139.344 119C139.047 118.737 138.788 118.46 138.5 118.188C137.936 117.653 137.135 116.69 136.281 116.594ZM139.312 119.562C139.326 119.574 139.432 119.652 139.406 119.625C138.543 118.732 139.402 119.633 139.688 119.938C139.739 120.007 139.862 120.016 139.969 119.938C140.075 119.859 140.114 119.725 140.062 119.656C139.586 119.549 139.602 119.604 139.312 119.562Z" fill="#FFFFFF" stroke="none"/>
</g>
<g opacity="1" vectornator:layerName="Curve 14">
<path d="M139.386 120.175C137.984 119.972 137.095 118.697 136.262 117.613" fill="#FFFFFF" fill-rule="nonzero" stroke="none"/>
<path d="M136.188 117.469C136.077 117.543 136.014 117.678 136.062 117.75C136.515 118.305 136.37 118.125 136.5 118.312C136.305 118.17 136.678 118.751 136.781 118.969C137.04 119.518 137.303 120.105 137.75 120.531C137.843 120.62 137.924 120.711 138.031 120.781C138.147 120.857 138.482 121.085 138.406 120.969C137.686 119.857 138.409 120.949 138.781 121.062C139.104 121.283 139.63 121.058 139.969 120.562C140.308 120.067 140.322 119.501 140 119.281C138.231 118.382 138.905 118.919 138.219 118.375C137.775 118.023 139.222 118.927 139.688 119.25C139.761 119.301 139.526 119.233 139.438 119.219C139.226 119.186 138.988 119.12 138.781 119.062C138.287 118.925 137.91 118.758 137.469 118.469C137.265 118.335 136.642 117.958 136.875 118.031C137.942 118.369 136.89 118.02 136.469 117.469C136.42 117.397 136.298 117.394 136.188 117.469Z" fill="#FFFFFF" stroke="none"/>
</g>
<g opacity="1" vectornator:layerName="Curve 15">
<path d="M139.803 121.001C138.408 120.235 137.337 119.254 136.155 118.188" fill="#FFFFFF" fill-rule="nonzero" stroke="none"/>
<path d="M136.344 118.031C136.29 117.964 136.165 117.98 136.062 118.062C135.96 118.145 135.915 118.277 135.969 118.344C137.146 119.71 136.928 119.481 137.156 119.688C137.386 120.038 137.593 120.415 137.844 120.75C137.998 120.957 138.502 121.547 138.344 121.344C137.561 120.336 138.347 121.337 138.969 121.812C139.26 122.114 139.88 121.98 140.344 121.531C140.807 121.082 140.948 120.489 140.656 120.188C138.506 119.113 139.386 119.699 138.5 119.125C138.05 118.833 139.47 119.562 139.906 119.875C140.125 120.032 139.409 119.686 139.156 119.594C138.486 119.35 138.26 119.293 137.625 118.969C137.384 118.846 136.687 118.461 136.938 118.562C138.19 119.072 136.927 118.557 136.344 118.031Z" fill="#FFFFFF" stroke="none"/>
</g>
<g opacity="1" vectornator:layerName="Curve 16">
<path d="M139.169 121.422C138.258 120.943 137.514 120.379 136.751 119.691" fill="#FFFFFF" fill-rule="nonzero" stroke="none"/>
<path d="M136.938 119.531C136.884 119.465 136.759 119.48 136.656 119.562C136.554 119.645 136.509 119.777 136.562 119.844C137.36 120.919 137.089 120.658 137.375 120.906C137.471 121.105 137.544 121.31 137.656 121.5C137.742 121.646 138.063 122.079 137.969 121.938C137.508 121.242 137.955 121.93 138.344 122.25C138.639 122.546 139.264 122.422 139.719 121.969C140.174 121.515 140.295 120.889 140 120.594C139.506 120.423 139.661 120.478 139.5 120.438C139.665 120.524 139.121 120.346 138.938 120.312C138.44 120.223 138.291 120.222 137.812 120.062C137.64 120.005 137.135 119.832 137.312 119.875C138.211 120.091 137.317 119.865 136.938 119.531Z" fill="#FFFFFF" stroke="none"/>
</g>
<g opacity="1" vectornator:layerName="Curve 17">
<path d="M141.209 120.404C140.189 119.518 139.36 118.48 138.429 117.511" fill="#FFFFFF" fill-rule="nonzero" stroke="none"/>
<path d="M138.344 117.375C138.237 117.454 138.199 117.587 138.25 117.656C139.269 119.402 138.657 118.733 139.25 119.406C139.553 119.751 138.847 118.587 138.688 118.156C138.61 117.947 138.903 118.549 139 118.75C139.199 119.164 139.344 119.581 139.531 120C139.625 120.21 139.955 120.827 139.844 120.625C139.302 119.638 139.851 120.635 140.281 121.156C140.548 121.492 141.171 121.41 141.688 121C142.204 120.59 142.423 119.992 142.156 119.656C141.596 119.291 141.78 119.387 141.594 119.281C141.564 119.259 141.538 119.246 141.5 119.219C141.474 119.219 141.147 119.028 140.969 118.938C140.315 118.604 140.275 118.638 139.656 118.25C139.457 118.125 138.889 117.728 139.094 117.844C140.124 118.428 139.084 117.865 138.625 117.375C138.574 117.306 138.45 117.296 138.344 117.375Z" fill="#FFFFFF" stroke="none"/>
</g>
<g opacity="1" vectornator:layerName="Curve 18">
<path d="M141.637 120.652C140.371 119.612 139.281 118.398 138.146 117.217" fill="#FFFFFF" fill-rule="nonzero" stroke="none"/>
<path d="M138.344 117.062C138.292 116.994 138.169 117.015 138.062 117.094C137.956 117.173 137.917 117.306 137.969 117.375C139.285 119.304 138.696 118.657 139.281 119.281C139.31 119.312 139.309 119.338 139.344 119.375C139.466 119.619 139.584 119.856 139.719 120.094C139.855 120.333 140.305 121.044 140.156 120.812C139.419 119.665 140.164 120.807 140.719 121.406C140.989 121.737 141.616 121.666 142.125 121.25C142.634 120.834 142.833 120.237 142.562 119.906C141.873 119.445 142.095 119.568 141.875 119.438C141.839 119.409 141.797 119.41 141.75 119.375C141.71 119.371 141.335 119.145 141.125 119.031C140.611 118.755 140.082 118.476 139.594 118.156C139.356 118.001 138.661 117.512 138.906 117.656C140.137 118.38 138.909 117.655 138.344 117.062Z" fill="#FFFFFF" stroke="none"/>
</g>
<g opacity="1" vectornator:layerName="Curve 19">
<path d="M137.794 98.4055C138.789 99.1155 139.813 99.7488 140.882 100.342" fill="#FFFFFF" fill-rule="nonzero" stroke="none"/>
<path d="M138.062 97.4375C137.812 97.4781 137.522 97.6252 137.281 97.8438C136.8 98.2809 136.653 98.8744 136.938 99.1875C138.768 99.8188 137.904 99.467 138.75 99.8125C138.753 99.8109 138.834 99.8524 138.812 99.8438C139.18 99.9405 139.761 100.091 139.531 100C138.681 99.6635 139.545 100.005 140.719 100.5C140.777 100.56 140.908 100.528 141 100.438C141.092 100.347 141.121 100.247 141.062 100.188C139.871 98.9053 140.555 99.5732 139.844 98.9062C139.693 98.7652 140.275 99.6109 140.125 99.4688C139.842 99.1994 139.127 98.2621 139.438 98.5C140.053 98.9718 139.43 98.5101 138.656 97.625C138.514 97.4685 138.313 97.3969 138.062 97.4375Z" fill="#FFFFFF" stroke="none"/>
</g>
<g opacity="1" vectornator:layerName="Curve 20">
<path d="M136.784 98.4338C138.074 99.3651 139.424 99.9985 140.876 100.63" fill="#FFFFFF" fill-rule="nonzero" stroke="none"/>
<path d="M137.031 97.4688C136.78 97.5095 136.522 97.6563 136.281 97.875C135.8 98.3123 135.622 98.9058 135.906 99.2188C138.312 100.006 137.319 99.5172 138.312 100C138.828 100.25 137.223 99.7124 136.656 99.625C136.368 99.5804 137.187 99.7979 137.469 99.875C138.032 100.029 138.62 100.143 139.188 100.281C139.46 100.348 140.267 100.554 140 100.469C138.641 100.034 139.999 100.495 140.719 100.812C140.78 100.868 140.915 100.812 141 100.719C141.085 100.625 141.092 100.524 141.031 100.469C139.344 99.0594 140.175 99.5905 139.344 99.0625C138.933 98.8013 140.066 99.7361 140.312 100.156C140.437 100.368 139.907 99.8446 139.719 99.6875C139.216 99.2685 139.156 99.1693 138.719 98.6875C138.557 98.5094 138.028 98.0093 138.219 98.1562C139.18 98.8976 138.223 98.1556 137.656 97.6562C137.514 97.4998 137.282 97.428 137.031 97.4688Z" fill="#FFFFFF" stroke="none"/>
</g>
<g opacity="1" vectornator:layerName="Curve 21">
<path d="M137.447 98.9277C138.907 99.4913 140.477 99.8245 141.789 100.696" fill="#FFFFFF" fill-rule="nonzero" stroke="none"/>
<path d="M137.562 97.9688C137.33 98.0405 137.075 98.2294 136.875 98.4688C136.475 98.9474 136.408 99.5215 136.719 99.7812C137.925 100.043 137.754 100.015 137.938 100.031C138.159 100.062 138.249 100.08 138.406 100.094C139.15 100.158 139.426 100.111 140.156 100.25C140.427 100.302 141.211 100.506 140.938 100.469C139.523 100.276 140.956 100.45 141.625 100.844C141.683 100.904 141.814 100.902 141.906 100.812C141.999 100.723 142.027 100.591 141.969 100.531C140.736 99.7258 140.851 99.8386 140.719 99.75C140.711 99.7448 140.665 99.6929 140.656 99.6875C140.252 99.3938 139.877 99.0685 139.469 98.7812C139.269 98.6406 138.643 98.2667 138.844 98.4062C139.878 99.1255 138.828 98.3948 138.156 98.0625C138.001 97.9326 137.795 97.897 137.562 97.9688ZM137.938 100.031C137.747 100.004 137.401 99.96 137.531 100C138.066 100.164 139.706 100.522 139.188 100.312C138.677 100.106 138.126 100.048 137.938 100.031Z" fill="#FFFFFF" stroke="none"/>
</g>
<g opacity="1" vectornator:layerName="Curve 22">
<path d="M138.233 98.0775C139.525 98.5762 140.774 99.0953 142 99.7386" fill="#FFFFFF" fill-rule="nonzero" stroke="none"/>
<path d="M138.375 97.125C138.139 97.1928 137.893 97.3566 137.688 97.5938C137.276 98.068 137.192 98.6701 137.5 98.9375C139.676 99.4224 138.484 99.0826 139.656 99.4062C139.894 99.472 138.69 99.22 138.938 99.2188C139.458 99.216 141.011 99.5057 140.5 99.4062C139.502 99.2122 140.505 99.417 141.844 99.9062C141.904 99.9633 142.006 99.9361 142.094 99.8438C142.182 99.7514 142.216 99.6196 142.156 99.5625C140.566 98.3862 141.481 99.0086 140.562 98.4062C140.304 98.1781 139.873 97.8154 140.062 97.9375C140.803 98.414 140.064 97.951 138.969 97.2188C138.815 97.0851 138.611 97.0572 138.375 97.125Z" fill="#FFFFFF" stroke="none"/>
</g>
<g opacity="1" vectornator:layerName="Curve 23">
<path d="M138.778 97.2706C140.276 98.0564 141.796 98.7792 143.203 99.7142" fill="#FFFFFF" fill-rule="nonzero" stroke="none"/>
<path d="M138.969 96.3125C138.725 96.368 138.473 96.5206 138.25 96.75C137.805 97.2088 137.671 97.8043 137.969 98.0938C140.5 98.981 139.141 98.4476 140.5 99C140.775 99.1116 139.394 98.6188 139.688 98.6562C140.304 98.7346 142.059 99.3189 141.469 99.125C140.311 98.7447 141.481 99.1125 143.031 99.875C143.089 99.9357 143.219 99.9018 143.312 99.8125C143.406 99.7232 143.433 99.6232 143.375 99.5625C141.481 98.0062 142.554 98.82 141.469 98C141.166 97.717 140.655 97.2732 140.875 97.4375C141.749 98.0909 140.89 97.4269 139.594 96.4375C139.445 96.2928 139.212 96.257 138.969 96.3125Z" fill="#FFFFFF" stroke="none"/>
</g>
<g opacity="1" vectornator:layerName="Curve 24">
<path d="M139.506 96.9482C140.289 97.3591 144.367 99.8434 143.22 98.8488" fill="#FFFFFF" fill-rule="nonzero" stroke="none"/>
<path d="M139.719 96C139.474 96.0533 139.194 96.1783 138.969 96.4062C138.518 96.8621 138.391 97.4881 138.688 97.7812C138.756 97.7948 138.748 97.7985 138.812 97.8125C138.832 97.8168 138.824 97.8394 138.844 97.8438C138.864 97.8555 138.93 97.8894 138.969 97.9062C139.046 97.9399 139.274 98.0347 139.344 98.0625C139.709 98.208 140.124 98.3026 140.5 98.4062C140.593 98.4319 140.688 98.4436 140.781 98.4688C141.298 98.6081 141.801 98.7502 142.312 98.9062C142.622 99.0008 142.955 99.215 143.281 99.25C143.494 99.2728 143.437 99.1602 143.406 99.0625C143.357 98.9045 143.24 98.7797 143.469 99.2188C143.477 99.2346 143.792 98.8716 143.531 98.8125C143.247 98.7481 143.423 98.7756 143.312 98.75C143.293 98.7399 143.269 98.7293 143.25 98.7188C143.215 98.725 143.192 98.6968 143.156 98.7188C143.144 98.7261 143.136 98.7097 143.125 98.7188C143.103 98.7095 143.046 98.6752 143.219 98.6875C142.457 98.2541 141.83 97.5007 141.25 96.875C141.08 96.6916 140.92 96.556 140.719 96.4062C140.621 96.3333 140.355 96.0971 140.438 96.1875C141.295 97.1306 140.422 96.1971 140.312 96.125C140.164 95.9784 139.964 95.9467 139.719 96ZM143.219 98.6875C143.231 98.6947 143.237 98.7118 143.25 98.7188C143.309 98.7081 143.376 98.6499 143.406 98.6875C143.429 98.7081 143.285 98.6922 143.219 98.6875Z" fill="#FFFFFF" stroke="none"/>
</g>
<g opacity="1" vectornator:layerName="Curve 25">
<path d="M140.336 96.3393C141.79 96.786 143.027 97.7463 144.283 98.5811" fill="#FFFFFF" fill-rule="nonzero" stroke="none"/>
<path d="M140.438 95.4062C140.207 95.4808 139.977 95.6342 139.781 95.875C139.39 96.3567 139.312 96.9645 139.625 97.2188C141.866 97.9829 140.955 97.4944 141.875 97.9688C142.467 98.2737 140.621 97.5524 140 97.3125C139.887 97.269 140.226 97.3498 140.344 97.375C140.603 97.4302 140.866 97.5064 141.125 97.5625C141.682 97.6834 142.177 97.7975 142.719 98C142.973 98.0951 143.732 98.3791 143.469 98.3125C142.173 97.9846 143.497 98.3252 144.125 98.75C144.182 98.8124 144.279 98.7751 144.375 98.6875C144.471 98.5999 144.526 98.4999 144.469 98.4375C143.142 97.2893 143.342 97.4276 143.125 97.2812C142.772 96.8702 142.444 96.4149 142.031 96.0625C141.933 95.9789 141.856 95.8851 141.75 95.8125C141.64 95.7372 141.31 95.5324 141.406 95.625C142.402 96.5829 141.387 95.6255 141.031 95.4688C140.875 95.3416 140.668 95.3317 140.438 95.4062Z" fill="#FFFFFF" stroke="none"/>
</g>
<g opacity="1" vectornator:layerName="Curve 26">
<path d="M140.398 95.6191C141.721 96.2683 142.928 96.8938 144.057 97.8553" fill="#FFFFFF" fill-rule="nonzero" stroke="none"/>
<path d="M140.594 94.6562C140.351 94.7126 140.065 94.8638 139.844 95.0938C139.401 95.5538 139.295 96.1496 139.594 96.4375C141.735 97.2168 140.604 96.7273 141.75 97.2188C141.978 97.3167 140.845 96.8671 141.094 96.875C141.618 96.8916 143.098 97.396 142.594 97.25C141.596 96.9608 142.603 97.2483 143.875 98C143.931 98.0641 144.058 98.0545 144.156 97.9688C144.255 97.883 144.306 97.7517 144.25 97.6875C143.211 96.6902 143.313 96.8373 143.188 96.7188C143.227 96.7731 143.137 96.6329 143.062 96.5625C142.693 96.1231 141.993 95.3833 142.281 95.6562C142.962 96.3019 142.28 95.6575 141.188 94.7812C141.038 94.6373 140.837 94.5999 140.594 94.6562Z" fill="#FFFFFF" stroke="none"/>
</g>
<g opacity="1" vectornator:layerName="Curve 27">
<path d="M141.035 95.0064C142.097 95.5275 143.014 96.1968 143.931 96.939" fill="#FFFFFF" fill-rule="nonzero" stroke="none"/>
<path d="M141.219 94.0625C140.975 94.1174 140.723 94.2398 140.5 94.4688C140.053 94.9267 139.921 95.5533 140.219 95.8438C140.8 96.0509 140.63 95.9809 140.812 96.0312C140.623 95.933 141.228 96.1121 141.438 96.1562C142.009 96.2771 142.169 96.3077 142.719 96.5C142.917 96.5694 143.485 96.7723 143.281 96.7188C142.252 96.448 143.292 96.7295 143.75 97.0938C143.805 97.1588 143.931 97.1472 144.031 97.0625C144.131 96.9778 144.18 96.8463 144.125 96.7812C143.222 95.7422 143.376 95.9084 143.188 95.75C143.154 95.7017 143.054 95.5988 143.062 95.5938C142.938 95.3884 142.827 95.1639 142.688 94.9688C142.574 94.8098 142.192 94.3777 142.312 94.5312C142.909 95.2881 142.313 94.5332 141.844 94.1875C141.695 94.0423 141.463 94.0076 141.219 94.0625Z" fill="#FFFFFF" stroke="none"/>
</g>
<g opacity="1" vectornator:layerName="Curve 28">
<path d="M141.936 95.5052C142.863 95.7874 143.712 96.0982 144.517 96.4696" fill="#FFFFFF" fill-rule="nonzero" stroke="none"/>
<path d="M142.031 94.5625C141.802 94.6387 141.568 94.8208 141.375 95.0625C140.989 95.5459 140.936 96.1242 141.25 96.375C142.814 96.5047 141.987 96.3793 142.812 96.5C142.973 96.5235 142.153 96.4652 142.312 96.4375C142.684 96.3732 143.814 96.4235 143.438 96.4062C142.7 96.3726 143.463 96.3828 144.375 96.625C144.436 96.6798 144.541 96.6565 144.625 96.5625C144.709 96.4685 144.717 96.3673 144.656 96.3125C143.639 95.4778 144.265 95.8876 143.656 95.4688C143.527 95.3799 144.047 95.9557 143.938 95.8438C143.73 95.6322 143.094 94.9969 143.344 95.1562C143.831 95.4673 143.349 95.1599 142.625 94.625C142.468 94.4996 142.261 94.4863 142.031 94.5625Z" fill="#FFFFFF" stroke="none"/>
</g>
<g opacity="1" vectornator:layerName="Curve 29">
<path d="M137.183 81.7695C144.158 81.1922 132.427 83.8972 144.175 80.7595" fill="#FFFFFF" fill-rule="nonzero" stroke="none"/>
<path d="M144.188 80.5938C140.843 80.7285 142.077 80.492 140.844 80.7188C139.979 80.8778 142.595 80.6811 143.469 80.7812C143.69 80.8066 143.06 80.8817 142.844 80.9375C142.474 81.033 142.095 81.1223 141.719 81.1875C141.415 81.2401 141.116 81.2909 140.812 81.3438C140.641 81.3737 140.453 81.4072 140.281 81.4375C140.052 80.8962 139.035 80.8158 138.625 80.8125C138.514 80.8116 138.392 80.8109 138.281 80.8125C138.156 80.8143 137.781 80.8489 137.906 80.8438C139.998 80.7578 137.915 80.8267 137.5 80.8438C137.172 80.7313 136.767 81.0575 136.594 81.5625C136.421 82.0675 136.547 82.5751 136.875 82.6875C137.993 82.4192 137.611 82.5352 138 82.4375C137.619 82.533 137.519 82.5597 137.281 82.625C137.167 82.6564 137.507 82.6062 137.625 82.5938C137.728 82.5829 137.835 82.5725 137.938 82.5625C137.937 82.5764 137.906 82.5795 137.906 82.5938C137.914 82.7759 138.185 82.8475 138.344 82.9375C138.408 82.9742 138.698 82.8619 138.781 82.8438C139.141 82.7653 139.534 82.6075 139.875 82.375C140.655 82.0524 141.439 81.7272 142.219 81.4688C142.413 81.4045 142.616 81.3367 142.812 81.2812C143.027 81.2208 143.685 81.0744 143.469 81.125C141.271 81.6382 143.451 81.1265 144.156 80.9375C144.219 80.9414 144.275 80.8773 144.281 80.7812C144.287 80.6852 144.25 80.5976 144.188 80.5938ZM138.875 81.6875C138.907 81.6847 138.955 81.6795 138.969 81.6875C138.988 81.6986 139.009 81.7082 139.031 81.7188C138.944 81.736 138.925 81.7604 138.844 81.7812C138.859 81.7524 138.859 81.7161 138.875 81.6875Z" fill="#FFFFFF" stroke="none"/>
</g>
<g opacity="1" vectornator:layerName="Curve 30">
<path d="M138.29 79.3699C140.08 79.4829 141.907 79.6706 143.685 79.9141" fill="#FFFFFF" fill-rule="nonzero" stroke="none"/>
<path d="M138.781 78.4688C138.453 78.293 137.958 78.5571 137.688 79.0625C137.417 79.5679 137.484 80.1055 137.812 80.2812C140.701 80.1868 139.104 80.1868 140.688 80.1875C141.012 80.1876 139.4 80.2478 139.719 80.1875C140.377 80.0631 142.388 79.9657 141.719 80C140.412 80.067 141.702 79.994 143.562 80.0938C143.628 80.1325 143.753 80.0693 143.812 79.9688C143.872 79.8682 143.847 79.7575 143.781 79.7188C141.274 79.0801 142.687 79.3914 141.281 79.0938C140.865 78.959 140.186 78.7548 140.469 78.8125C141.596 79.0426 140.466 78.8385 138.781 78.4688Z" fill="#FFFFFF" stroke="none"/>
</g>
<g opacity="1" vectornator:layerName="Curve 31">
<path d="M137.358 78.3552C142.973 80.2196 135.725 84.5605 144.146 80.7647" fill="#FFFFFF" fill-rule="nonzero" stroke="none"/>
<path d="M137.469 77.2812C137.203 77.364 136.946 77.5386 136.719 77.8125C136.264 78.3602 136.175 79.0485 136.531 79.3438C136.765 79.3924 136.679 79.3931 136.875 79.4375C136.865 79.4356 136.908 79.4373 136.906 79.4375C136.888 79.4393 137.044 79.5011 137.125 79.5312C137.276 79.5876 137.448 79.6788 137.594 79.75C137.898 79.8991 138.262 80.0969 138.5 80.3438C139.085 80.95 138.756 82.4896 139.469 82.7188C140.382 83.0124 141.609 82.0805 142.375 81.7188C142.647 81.5905 142.943 81.4954 143.219 81.375C143.375 81.3065 143.851 81.206 143.688 81.1562C143.012 80.9507 143.273 81.0256 143.219 81C143.175 81.0102 143.154 81.0184 143.125 81.0312C142.983 81.0932 142.861 81.158 142.719 81.2188C142.198 81.4416 141.647 81.595 141.094 81.7188C140.961 81.7485 140.286 81.7763 140.344 81.75C140.435 81.7081 140.514 81.0816 140.531 81C140.734 80.0396 140.601 79.0541 139.875 78.3438C139.583 78.0576 139.207 77.8412 138.844 77.6562C138.735 77.6011 138.425 77.4407 138.531 77.5C140.386 78.5353 138.531 77.5154 138.188 77.375C138.009 77.2274 137.734 77.1985 137.469 77.2812ZM143.219 81C143.312 80.9782 143.329 80.9313 143.406 80.9062C142.98 80.8551 143.14 80.963 143.219 81ZM143.406 80.9062C143.712 80.9429 144.036 81.0053 144.188 80.9375C144.251 80.921 144.275 80.8482 144.25 80.75C144.225 80.6518 144.158 80.5773 144.094 80.5938C141.134 78.982 142.396 78.8425 141.156 78.9688C140.14 79.0722 142.881 80.0801 143.594 80.8125C143.642 80.8616 143.483 80.8812 143.406 80.9062Z" fill="#FFFFFF" stroke="none"/>
</g>
<g opacity="1" vectornator:layerName="Curve 32">
<path d="M139.983 78.845C140.882 78.9147 141.718 79.1621 142.592 79.3752" fill="#FFFFFF" fill-rule="nonzero" stroke="none"/>
<path d="M140.5 77.9375C140.173 77.7501 139.663 77.9963 139.375 78.5C139.087 79.0037 139.141 79.5626 139.469 79.75C139.938 79.7181 139.783 79.7398 139.938 79.7188C139.768 79.7124 140.271 79.6573 140.438 79.625C140.925 79.5303 141.007 79.5064 141.5 79.4688C141.673 79.4556 142.203 79.4127 142.031 79.4375C141.178 79.5609 142.034 79.4541 142.469 79.5625C142.533 79.6089 142.647 79.5671 142.719 79.4688C142.79 79.3704 142.783 79.2339 142.719 79.1875C141.611 78.5554 142.176 78.7109 141.625 78.5625C141.522 78.4654 141.425 78.3673 141.312 78.2812C141.195 78.1912 140.813 77.983 140.938 78.0625C141.533 78.4424 140.929 78.0615 140.5 77.9375Z" fill="#FFFFFF" stroke="none"/>
</g>
<g opacity="1" vectornator:layerName="Curve 33">
<path d="M140.313 78.1767C141.252 78.2795 142.16 78.4626 143.072 78.7059" fill="#FFFFFF" fill-rule="nonzero" stroke="none"/>
<path d="M140.875 77.2812C140.549 77.0838 140.023 77.3107 139.719 77.8125C139.415 78.3143 139.424 78.8963 139.75 79.0938C141.341 78.9932 140.482 79.0044 141.344 79C141.523 78.9991 140.642 79.0256 140.812 78.9688C141.176 78.8473 142.319 78.7418 141.938 78.7812C141.206 78.857 141.943 78.7766 142.938 78.875C143.001 78.9211 143.117 78.8797 143.188 78.7812C143.258 78.6828 143.251 78.5774 143.188 78.5312C142.018 77.9014 142.708 78.2006 142.031 77.9062C141.844 77.7718 141.516 77.566 141.656 77.625C142.201 77.8543 141.684 77.6448 140.875 77.2812Z" fill="#FFFFFF" stroke="none"/>
</g>
<g opacity="1" vectornator:layerName="Curve 34">
<path d="M140.731 77.1745C141.876 77.3668 141.208 77.209 142.703 77.769" fill="#FFFFFF" fill-rule="nonzero" stroke="none"/>
<path d="M141.312 76.2812C140.988 76.0745 140.474 76.3128 140.156 76.8125C139.838 77.3122 139.831 77.887 140.156 78.0938C140.441 78.0774 140.317 78.0779 140.438 78.0625C140.825 78.0129 140.87 77.9379 141.344 78C141.573 78.0301 141.029 78.0212 140.656 78.0312C140.718 78.0183 140.783 78.0179 140.844 78C141.05 77.9392 141.179 77.8635 141.406 77.8438C141.564 77.8301 142.03 77.7824 141.875 77.8125C141.304 77.9233 141.885 77.8041 142.562 77.9375C142.624 77.9904 142.731 77.9702 142.812 77.875C142.894 77.7798 142.906 77.6466 142.844 77.5938C142.174 77.0184 142.363 77.1339 142.188 77.0312C142.174 77.0236 142.174 76.9788 142.156 76.9688C142.028 76.7694 141.875 76.5837 141.688 76.4375C141.641 76.4016 141.489 76.3343 141.531 76.375C141.964 76.7963 141.532 76.372 141.312 76.2812Z" fill="#FFFFFF" stroke="none"/>
</g>
<g opacity="1" vectornator:layerName="Curve 35">
<path d="M140.848 76.4771C141.704 76.6927 142.483 77.0423 143.337 77.2503" fill="#FFFFFF" fill-rule="nonzero" stroke="none"/>
<path d="M140.906 75.5312C140.682 75.613 140.465 75.7869 140.281 76.0312C139.913 76.52 139.87 77.1357 140.188 77.375C140.911 77.3907 140.792 77.3853 140.906 77.375C141.036 77.3702 141.07 77.3815 141.156 77.375C141.766 77.3287 141.646 77.3181 142.25 77.3125C142.422 77.3109 142.953 77.3075 142.781 77.3125C141.915 77.3376 142.794 77.3226 143.219 77.4375C143.282 77.485 143.364 77.4416 143.438 77.3438C143.511 77.2459 143.532 77.11 143.469 77.0625C142.492 76.3221 143.014 76.5394 142.5 76.3438C142.238 76.244 142.908 76.7348 143.062 76.9688C143.136 77.0799 142.847 76.8097 142.75 76.7188C142.549 76.5304 142.404 76.298 142.219 76.0938C142.123 75.9884 141.795 75.6933 141.906 75.7812C142.438 76.2002 141.883 75.7859 141.5 75.5938C141.341 75.4741 141.131 75.4495 140.906 75.5312ZM140.906 77.375C140.776 77.3799 140.569 77.403 140.656 77.4062C141.006 77.4193 142.032 77.4673 141.688 77.4062C141.355 77.3474 141.03 77.3638 140.906 77.375Z" fill="#FFFFFF" stroke="none"/>
</g>
<g opacity="1" vectornator:layerName="Curve 36">
<path d="M141.118 76.0817C142.123 76.3845 143.092 76.7521 144.033 77.2159" fill="#FFFFFF" fill-rule="nonzero" stroke="none"/>
<path d="M141.219 75.1562C140.989 75.2321 140.756 75.3835 140.562 75.625C140.176 76.1081 140.092 76.7173 140.406 76.9688C142.136 77.183 141.228 76.9844 142.156 77.1562C142.347 77.1916 141.37 77.091 141.562 77.0625C141.974 77.0015 143.228 77.0964 142.812 77.0625C142.012 76.9971 142.823 77.0602 143.875 77.375C143.936 77.4308 144.07 77.4058 144.156 77.3125C144.242 77.2192 144.248 77.1183 144.188 77.0625C143.003 76.1425 143.694 76.5834 143 76.125C142.821 75.9492 142.516 75.6581 142.656 75.75C143.216 76.1162 142.641 75.7721 141.812 75.2188C141.656 75.093 141.448 75.0804 141.219 75.1562Z" fill="#FFFFFF" stroke="none"/>
</g>
<g opacity="1" vectornator:layerName="Curve 37">
<path d="M138.335 64.0277C137.509 64.2364 137.939 64.1345 137.069 64.3196" fill="#FFFFFF" fill-rule="nonzero" stroke="none"/>
<path d="M138.406 63.1562C138.068 63.4109 138.098 63.3657 138.062 63.4062C138.04 63.4271 138.022 63.4468 138 63.4688C137.882 63.5892 137.783 63.6987 137.656 63.8125C137.587 63.8747 137.368 64.0621 137.438 64C137.756 63.7142 137.447 64.0212 137.094 64.1562C137.03 64.1466 136.984 64.2144 136.969 64.3125C136.954 64.4106 136.967 64.4903 137.031 64.5C137.64 64.7024 137.385 64.6867 137.656 64.6875C137.71 64.6877 137.595 64.6317 137.531 64.5938C137.664 64.675 137.829 64.7454 137.969 64.8125C138.012 64.8333 138.139 64.9225 138.094 64.9062C137.745 64.7803 138.072 64.8948 138.25 64.9062C138.564 64.933 138.865 64.5454 138.906 64.0625C138.947 63.5796 138.72 63.183 138.406 63.1562Z" fill="#FFFFFF" stroke="none"/>
</g>
<g opacity="1" vectornator:layerName="Curve 38">
<path d="M137.028 65.5527C137.616 64.8497 135.974 64.2129 135.617 64.8161" fill="#FFFFFF" fill-rule="nonzero" stroke="none"/>
<path d="M136.156 64.375C136.068 64.4002 135.961 64.4029 135.875 64.4375C135.784 64.4744 135.542 64.5089 135.625 64.5625C136.353 65.0346 135.63 64.578 135.469 64.75C135.445 64.8079 135.473 64.869 135.562 64.9062C135.652 64.9435 135.757 64.9329 135.781 64.875C135.955 65.1002 135.963 65.1783 135.938 65.0938C135.76 64.5085 136.04 64.7555 136.188 65C136.223 65.0586 136.174 65.1862 136.156 65.3438C136.057 65.1746 136.142 65.3549 136.125 65.3438C136.122 65.357 136.158 65.3617 136.156 65.375C136.113 65.688 136.397 66.0091 136.875 66.125C137.373 66.2458 137.859 66.105 137.938 65.7812C136.701 65.2698 137.151 65.3742 136.688 65.25C136.242 65.1305 137.57 65.579 138.031 65.5938C138.114 65.5964 138.185 65.1117 138.188 65.0625C138.201 64.7565 138.033 64.5 137.75 64.375C137.26 64.1587 136.651 64.2344 136.156 64.375Z" fill="#FFFFFF" stroke="none"/>
</g>
<g opacity="1" vectornator:layerName="Curve 39">
<path d="M136.102 62.8278C134.998 64.9428 141.405 64.5429 135.531 67.0999" fill="#FFFFFF" fill-rule="nonzero" stroke="none"/>
<path d="M136.094 62.1562C135.519 62.173 135.052 62.4699 135.062 62.8438C135.185 64.0081 135.337 64.3355 135.406 64.5C135.469 64.5554 135.492 64.6426 135.562 64.6875C136.025 64.984 136.555 65.0941 137.062 65.2812C137.105 65.2969 137.552 65.4743 137.531 65.5625C137.416 66.0583 136.563 66.4628 136.156 66.6562C136.126 66.6708 136.1 66.6579 136.062 66.6875C136.027 66.8207 135.943 66.9941 135.938 67.0938C135.931 67.2135 136.142 66.989 136.25 66.9375C136.441 66.8469 136.621 66.7443 136.812 66.6562C137.433 66.3712 138.247 66.1315 138.531 65.4375C138.84 64.682 137.902 64.0822 137.438 63.6562C137.307 63.5368 137.185 63.3701 137.094 63.2188C137.054 63.1536 137.036 63.1062 137.031 63.0312C137.029 63.0014 137.072 62.9092 137.062 62.9375C136.568 64.3744 137.073 62.9623 137.156 62.8125C137.145 62.4387 136.669 62.1395 136.094 62.1562ZM136.062 66.6875C136.28 65.8791 136.84 64.6837 136.344 65.0312C135.795 65.4161 135.988 65.5244 135.75 66.5312C135.771 66.58 135.746 66.442 135.844 66.7812C135.866 66.8597 135.972 66.759 136.062 66.6875ZM135.75 66.5312C135.69 66.3956 135.757 66.8234 135.5 66.9375C135.444 66.9515 135.416 67.0387 135.438 67.125C135.459 67.2113 135.506 67.264 135.562 67.25C135.725 66.791 135.688 66.7923 135.75 66.5312ZM135.406 64.5C135.246 64.3593 135.077 64.2311 135 64.0312C135.013 64.6172 135.025 65.1835 135.281 64.9062C135.495 64.6744 135.459 64.6241 135.406 64.5ZM135 64.0312C134.993 63.7266 134.994 63.4066 134.938 63.2188C134.896 63.0822 134.901 63.4824 134.906 63.625C134.91 63.7455 134.93 63.8858 134.969 64C134.974 64.0145 134.995 64.0171 135 64.0312Z" fill="#FFFFFF" stroke="none"/>
</g>
<g opacity="1" vectornator:layerName="Curve 40">
<path d="M133.685 65.5054C137.769 61.8754 127.608 66.6117 134.218 60.1746" fill="#FFFFFF" fill-rule="nonzero" stroke="none"/>
<path d="M134.062 60.0938C133.972 60.5121 134.034 60.4881 134 60.75C134.17 61.8779 134.016 60.6056 134.375 60.25C134.405 60.1973 134.362 60.1395 134.281 60.0938C134.2 60.048 134.092 60.0411 134.062 60.0938ZM134 60.75C133.985 60.6515 133.99 60.7976 133.969 60.6562C133.945 60.4932 133.739 60.8805 133.625 61C133.609 61.017 133.61 61.0454 133.594 61.0625C133.468 61.8801 133.123 62.9442 133.531 62.5625C134.093 62.0371 133.835 62.0377 134 60.75ZM133.594 61.0625C133.625 60.8611 133.705 60.6053 133.688 60.4688C133.666 60.3005 133.429 60.7208 133.312 60.8438C133.109 61.0579 132.925 61.2881 132.719 61.5C132.252 61.9809 131.5 62.5956 131.406 63.3125C131.286 64.2238 132.359 64.4422 133 64.5625C133.05 64.5719 133.104 64.5861 133.156 64.5938C133.101 64.7734 133.067 64.9751 133 65.0312C132.834 65.2762 132.998 65.6816 133.375 65.9375C133.752 66.1934 134.209 66.2137 134.375 65.9688C134.373 63.3416 133.813 63.7265 134.312 63.2188C134.066 63.2303 133.8 63.2275 133.625 63.25C133.359 63.2843 133.08 63.2919 132.812 63.3125C132.779 63.3017 132.77 63.288 132.75 63.2812C132.703 63.2657 132.64 63.2673 132.594 63.25C132.487 63.21 132.349 62.8175 132.406 63.0938C132.421 63.1634 132.424 62.9761 132.438 62.9062C132.471 62.7334 132.547 62.5628 132.625 62.4062C132.877 61.9007 133.21 61.4724 133.594 61.0625ZM134.312 63.2188C134.435 63.213 134.532 63.2125 134.656 63.2188C134.622 63.035 134.545 62.9581 134.375 63.125C134.313 63.1861 134.356 63.1746 134.312 63.2188ZM134.656 63.2188C134.748 63.7112 134.498 65.0938 134.625 65.7188C134.63 65.743 135.059 65.2545 135.062 65.25C135.343 64.9187 135.642 64.5416 135.688 64.0938C135.755 63.4322 135.232 63.2476 134.656 63.2188ZM133.25 64.5938C133.323 64.6038 133.396 64.6133 133.469 64.625C133.447 64.6472 133.407 64.6866 133.406 64.6875C133.351 64.7379 133.208 64.9181 133.219 64.8438C133.27 64.4891 133.239 64.6832 133.25 64.5938Z" fill="#FFFFFF" stroke="none"/>
</g>
<g opacity="1" vectornator:layerName="Curve 41">
<path d="M130.955 62.5757C134.642 59.0383 129.483 64.2879 134.064 59.2985" fill="#FFFFFF" fill-rule="nonzero" stroke="none"/>
<path d="M134.125 59.1875C134.038 59.148 133.932 59.1621 133.906 59.2188C132.074 60.6762 132.693 60.0678 132.062 60.6875C131.601 61.141 133.089 59.8936 133.625 59.5312C133.727 59.4621 133.458 59.7215 133.375 59.8125C133.086 60.1272 133.23 59.9831 132.906 60.25C132.695 60.4242 132.493 60.6074 132.281 60.7812C131.793 60.9578 131.291 61.2994 131.062 61.4688C130.935 61.5628 130.809 61.6496 130.688 61.75C130.615 61.8097 130.395 61.9956 130.469 61.9375C131.613 61.0354 130.486 61.9538 130.25 62.1562C130.094 62.4126 130.293 62.7917 130.688 63.0312C131.082 63.2708 131.501 63.2563 131.656 63C132.494 61.8057 132.409 61.945 132.5 61.8125C132.226 62.203 132.083 62.4551 131.875 62.7812C131.828 62.8556 132.003 62.6592 132.062 62.5938C132.236 62.4011 132.383 62.2121 132.531 62C132.593 61.9119 132.658 61.8366 132.719 61.75C132.744 61.729 132.757 61.7095 132.781 61.6875C132.785 61.6809 132.788 61.6525 132.781 61.6562C133.053 61.399 133.161 61.1049 133.062 60.875C133.248 60.5577 133.38 60.3018 133.469 60.1875C133.537 60.0997 133.613 60.0199 133.688 59.9375C133.77 59.8463 134.005 59.5536 133.938 59.6562C133.194 60.7803 133.944 59.6743 134.219 59.375C134.244 59.3184 134.212 59.227 134.125 59.1875ZM132.656 61.5312C132.649 61.5522 132.665 61.5759 132.656 61.5938C132.652 61.5988 132.629 61.6203 132.625 61.625C132.611 61.6457 132.612 61.6926 132.594 61.7188C132.591 61.7235 132.566 61.7138 132.562 61.7188C132.567 61.7122 132.588 61.6633 132.594 61.6562C132.601 61.67 132.615 61.644 132.625 61.625C132.627 61.6213 132.65 61.542 132.656 61.5312Z" fill="#FFFFFF" stroke="none"/>
</g>
<g opacity="1" vectornator:layerName="Curve 42">
<path d="M137.121 64.7515C137.156 65.7933 138.675 61.1652 137.539 65.3644" fill="#FFFFFF" fill-rule="nonzero" stroke="none"/>
<path d="M138.281 63.0938C137.723 62.9861 137.269 63.6376 136.938 64.0312C136.905 64.0412 136.876 64.0193 136.844 64.0312C136.235 64.2558 135.885 64.7605 136.031 65.1562C136.683 65.2736 136.704 65.0204 136.656 65.2812C136.619 65.4874 136.232 65.1893 136.031 65.25C135.977 65.2664 136.123 65.4836 136.156 65.5312C136.265 65.6885 136.439 65.754 136.625 65.7812C136.964 65.8309 137.246 65.6566 137.562 65.5C137.626 65.4684 137.683 65.4684 137.75 65.4375C137.845 65.3936 137.93 65.3273 138 65.25C138.195 65.0356 138.306 64.7805 138.375 64.5C138.415 64.3351 138.533 63.8594 138.469 63.6875C138.464 63.674 138.452 63.7192 138.438 63.75C138.557 63.4585 138.599 63.155 138.281 63.0938ZM138.156 64.25C138.166 64.2597 138.178 64.272 138.188 64.2812C138.195 64.289 138.181 64.3027 138.188 64.3125C138.178 64.2917 138.137 64.3004 138.125 64.2812C138.131 64.2721 138.15 64.2603 138.156 64.25Z" fill="#FFFFFF" stroke="none"/>
</g>
<path d="M80.2995 78.5681L44.6103 63.5697" fill="none" opacity="1" stroke="#FFFFFF" stroke-linecap="butt" stroke-linejoin="round" stroke-width="7.04596" vectornator:layerName="Line 9"/>
<path d="M83.608 78.5681L38.976 79.0619" fill="none" opacity="1" stroke="#FFFFFF" stroke-linecap="butt" stroke-linejoin="round" stroke-width="7.04596" vectornator:layerName="Line 10"/>
<path d="M89.8746 79.0619L38.976 97.5411" fill="none" opacity="1" stroke="#FFFFFF" stroke-linecap="butt" stroke-linejoin="round" stroke-width="7.04596" vectornator:layerName="Line 11"/>
<path d="M77.8367 88.609L38.976 119.804" fill="none" opacity="1" stroke="#FFFFFF" stroke-linecap="butt" stroke-linejoin="round" stroke-width="7.04596" vectornator:layerName="Line 12"/>
<path d="M38.976 97.5411L18.505 119.804" fill="none" opacity="1" stroke="#FFFFFF" stroke-linecap="butt" stroke-linejoin="round" stroke-width="7.04596" vectornator:layerName="Line 13"/>
<path d="M38.976 119.804L45.2193 143.179" fill="none" opacity="1" stroke="#FFFFFF" stroke-linecap="butt" stroke-linejoin="round" stroke-width="7.04596" vectornator:layerName="Line 14"/>
<path d="M38.976 79.0619L18.505 53.6202" fill="none" opacity="1" stroke="#FFFFFF" stroke-linecap="butt" stroke-linejoin="round" stroke-width="7.04596" vectornator:layerName="Line 15"/>
<path d="M44.6103 63.5697L44.6103 30.8236" fill="none" opacity="1" stroke="#FFFFFF" stroke-linecap="butt" stroke-linejoin="round" stroke-width="7.04596" vectornator:layerName="Line 16"/>
<g opacity="1" vectornator:layerName="Curve 44">
<path d="M39.1281 118.497C37.2414 120.39 38.0039 117.087 36.8627 119.95" fill="#FFFFFF" fill-rule="nonzero" stroke="none"/>
<path d="M39.4062 118.031C39.0148 117.789 38.5637 117.808 38.4062 118.062C38.2386 118.243 38.3463 118.156 38.25 118.25C38.2893 118.211 38.1635 118.356 38.1875 118.406C38.23 118.495 38.4132 118.383 38.4688 118.5C38.5239 118.616 38.2038 118.503 38.0938 118.438C38.1802 118.339 38.192 118.308 38.25 118.25C38.1453 118.352 38.1113 118.398 38.0625 118.438C37.8414 118.317 37.5794 118.299 37.3438 118.438C36.9912 118.645 37.0189 118.992 36.9062 119.344C36.8762 119.438 36.7063 119.689 36.7812 119.625C37.3539 119.135 36.7906 119.639 36.6562 119.969C36.6584 120.044 36.76 120.097 36.875 120.094C36.99 120.09 37.0647 120.012 37.0625 119.938C37.7676 119.681 37.6568 119.69 37.7812 119.688C37.819 119.704 37.854 119.778 37.875 119.781C38.3325 119.842 38.832 119.636 39.2188 119.406C39.3337 119.338 39.6609 119.123 39.5312 119.156C38.6934 119.37 39.5536 119.171 39.8438 118.938C40.0012 118.683 39.7977 118.274 39.4062 118.031ZM37.375 119.281C37.4571 119.402 37.5095 119.47 37.6562 119.562C37.4326 119.63 37.3655 119.636 37.2188 119.625C37.1238 119.618 37.2646 119.426 37.3125 119.344C37.3222 119.327 37.3586 119.303 37.375 119.281Z" fill="#FFFFFF" stroke="none"/>
</g>
<g opacity="1" vectornator:layerName="Curve 45">
<path d="M39.3169 118.118C37.8781 118.439 37.5834 119.824 37.2403 121.086" fill="#FFFFFF" fill-rule="nonzero" stroke="none"/>
<path d="M39.3438 117.25C38.1915 119.177 38.8217 118.615 38.1875 119.188C37.7209 119.609 38.8058 118.062 38.875 117.438C38.8975 117.235 38.5091 117.631 38.3438 117.75C38.1934 117.859 38.0648 117.99 37.9375 118.125C37.4833 118.606 37.2982 119.196 37.25 119.844C37.2307 120.103 37.2375 120.211 37.1875 120.469C37.1664 120.578 37.0637 120.874 37.125 120.781C37.8937 119.621 37.1168 120.807 37.0312 121.125C37.0414 121.202 37.1308 121.234 37.25 121.219C37.3692 121.203 37.4789 121.14 37.4688 121.062C38.3931 120.021 38.0308 120.423 38.375 120.031C38.6189 119.754 37.856 120.574 37.5312 120.75C37.4351 120.802 37.5862 120.54 37.625 120.438C37.6665 120.328 37.7239 120.196 37.7812 120.094C37.9828 119.735 38.2505 119.363 38.5938 119.125C38.7209 119.037 38.8782 118.962 39.0312 119C39.0492 119.004 39.1049 118.985 39.0938 119C38.5637 119.696 39.0949 118.997 39.3125 118.969C39.6202 118.973 39.8683 118.598 39.875 118.125C39.8817 117.652 39.6515 117.254 39.3438 117.25Z" fill="#FFFFFF" stroke="none"/>
</g>
<g opacity="1" vectornator:layerName="Curve 46">
<path d="M39.3169 118.56C38.3117 119.294 37.967 120.055 37.5549 121.213" fill="#FFFFFF" fill-rule="nonzero" stroke="none"/>
<path d="M38.75 118C38.0494 119.61 38.4264 118.95 38.0312 119.625C37.7884 120.04 38.4205 118.724 38.5 118.25C38.5211 118.124 38.2961 118.43 38.2188 118.531C38.1482 118.624 38.0902 118.712 38.0312 118.812C37.7848 119.233 37.6985 119.676 37.625 120.156C37.5991 120.326 37.4828 120.808 37.5625 120.656C38.015 119.794 37.5492 120.665 37.3438 121.219C37.348 121.294 37.4462 121.35 37.5625 121.344C37.6788 121.337 37.7543 121.263 37.75 121.188C38.8114 120.146 38.5062 120.647 38.8125 120.156C38.9877 119.875 38.2993 120.639 37.9688 120.656C37.7714 120.666 38.1828 120.337 38.3125 120.188C38.5954 119.863 38.93 119.597 39.3125 119.406C39.4328 119.346 39.7479 119.152 39.6562 119.25C39.0361 119.915 39.6558 119.255 39.875 119.125C40.0747 118.92 40.0031 118.495 39.6875 118.188C39.3719 117.88 38.9497 117.795 38.75 118Z" fill="#FFFFFF" stroke="none"/>
</g>
<g opacity="1" vectornator:layerName="Curve 47">
<path d="M38.6826 119.067C37.5885 119.891 37.4016 120.713 36.9836 121.972" fill="#FFFFFF" fill-rule="nonzero" stroke="none"/>
<path d="M38.0938 118.531C37.4377 120.26 37.836 119.526 37.4375 120.25C37.1948 120.691 37.7692 119.314 37.8125 118.812C37.8246 118.673 37.6129 119.011 37.5312 119.125C37.4586 119.227 37.402 119.327 37.3438 119.438C37.1067 119.887 37.0377 120.34 37 120.844C36.9866 121.022 36.8928 121.569 36.9688 121.406C37.4023 120.48 36.9772 121.401 36.7812 122C36.788 122.076 36.8824 122.135 37 122.125C37.1176 122.115 37.1943 122.045 37.1875 121.969C38.2305 120.793 37.9443 121.311 38.25 120.781C38.4211 120.484 37.7473 121.31 37.4062 121.344C37.1963 121.364 37.6254 120.983 37.75 120.812C38.0155 120.45 38.2975 120.161 38.6875 119.938C38.8064 119.87 39.148 119.643 39.0625 119.75C38.4622 120.5 39.0493 119.739 39.2812 119.594C39.4729 119.378 39.3626 118.982 39.0312 118.688C38.6999 118.393 38.2854 118.316 38.0938 118.531Z" fill="#FFFFFF" stroke="none"/>
</g>
<g opacity="1" vectornator:layerName="Curve 48">
<path d="M37.9275 118.751C36.9293 120.026 36.4005 121.161 36.0397 122.73" fill="#FFFFFF" fill-rule="nonzero" stroke="none"/>
<path d="M38.0938 118.188C37.6014 118.059 37.1149 118.211 37.0312 118.531C36.4249 120.652 36.8249 119.707 36.4375 120.625C36.2498 121.07 36.672 119.699 36.625 119.219C36.6002 118.965 36.4461 119.693 36.375 119.938C36.2826 120.256 36.1398 120.982 36.0938 121.312C36.0614 121.545 35.9566 122.223 36.0312 122C36.4154 120.853 36.0088 121.991 35.8125 122.75C35.8232 122.828 35.9431 122.892 36.0625 122.875C36.1819 122.858 36.2607 122.765 36.25 122.688C37.5315 120.83 37.0553 121.731 37.5312 120.844C37.7762 120.387 36.8827 121.672 36.4375 121.938C36.2126 122.072 36.7038 121.471 36.8438 121.25C37.1532 120.76 37.385 120.513 37.7812 120.094C37.95 119.915 38.4363 119.351 38.3125 119.562C37.6819 120.643 38.2983 119.572 38.8125 119C38.8961 118.68 38.5861 118.316 38.0938 118.188Z" fill="#FFFFFF" stroke="none"/>
</g>
<g opacity="1" vectornator:layerName="Curve 49">
<path d="M44.0832 117.749C45.2415 116.781 40.968 118.601 40.0497 119.8" fill="#FFFFFF" fill-rule="nonzero" stroke="none"/>
<path d="M44.8438 116.625C43.7131 116.386 42.3918 117.61 41.625 118.219C41.2929 118.483 40.951 118.791 40.625 119.062C40.4821 119.181 40.0365 119.443 40.2188 119.406C41.7575 119.096 40.2155 119.39 39.9062 119.719C39.8797 119.775 39.9142 119.865 40 119.906C40.0858 119.947 40.1922 119.931 40.2188 119.875C41.1579 119.114 41.0313 119.213 41.1562 119.125C41.2202 119.095 41.2793 119.06 41.3438 119.031C41.8732 118.795 42.4357 118.628 43 118.5C43.2127 118.452 43.4404 118.403 43.6562 118.375C43.7046 118.369 43.8446 118.348 43.9062 118.344C43.7277 118.361 43.5875 118.372 43.4062 118.25C43.3833 118.235 43.3216 118.235 43.3438 118.219C43.4562 118.134 43.5747 118.053 43.6875 117.969C43.7523 118.044 43.6903 118.125 43.7812 118.188C44.0837 118.395 44.3527 118.336 44.5625 118.219C44.6775 118.166 44.8494 118.067 44.9375 118.031C45.1851 117.931 45.3779 117.416 45.3438 117.125C45.3405 117.097 45.2729 116.847 45.2188 116.812C45.2204 116.811 45.189 116.815 45.1875 116.812C45.1867 116.811 45.189 116.783 45.1875 116.781C45.1476 116.74 44.8788 116.632 44.8438 116.625ZM44.5625 118.219C44.5164 118.24 44.4556 118.258 44.4062 118.281C44.5806 118.235 44.5277 118.288 44.75 118.219C44.7176 118.266 44.6128 118.191 44.5625 118.219ZM44.4062 118.281C42.6723 118.741 42.9276 118.293 42.3438 118.969C41.8254 119.569 43.3799 118.76 44.4062 118.281ZM43.4062 117.312C43.3092 117.479 43.5035 117.696 43.6562 117.906C43.539 117.995 43.4302 118.099 43.3125 118.188C43.2766 118.215 43.1871 117.917 43.1875 117.844C43.1886 117.624 43.2514 117.58 43.4062 117.312ZM40.9688 119.219C40.7058 119.437 40.6353 119.471 40.4688 119.594C40.3397 119.689 40.7082 119.367 40.8438 119.281C40.8835 119.256 40.9275 119.241 40.9688 119.219Z" fill="#FFFFFF" stroke="none"/>
</g>
<g opacity="1" vectornator:layerName="Curve 50">
<path d="M40.5363 120.175C41.9333 119.972 42.8194 118.697 43.6492 117.613" fill="#FFFFFF" fill-rule="nonzero" stroke="none"/>
<path d="M43.6875 117.5C43.5906 117.472 43.4868 117.499 43.4688 117.562C42.0683 118.424 42.5323 118.032 42.0625 118.438C41.8024 118.662 42.745 117.994 43.0625 118.125C43.2898 118.219 42.6936 118.442 42.5 118.594C42.1352 118.88 41.8364 119.098 41.4062 119.219C41.1698 119.285 41.2515 119.24 41.0312 119.25C40.9884 119.252 40.8711 119.306 40.9062 119.281C41.7475 118.694 40.9267 119.263 40.6875 119.281C40.3684 119.232 40.0442 119.603 39.9688 120.094C39.8933 120.585 40.0872 121.013 40.4062 121.062C42.1187 119.362 41.3111 120.015 42.125 119.375C42.6559 118.958 41.1745 120.349 40.8438 120.938C40.7532 121.099 41.1812 120.807 41.3438 120.719C41.498 120.635 41.6406 120.542 41.7812 120.438C42.3503 120.014 42.7141 119.42 43.0625 118.812C43.1778 118.611 43.5839 118.07 43.4062 118.219C42.3501 119.105 43.3891 118.211 43.8125 117.656C43.8306 117.593 43.7844 117.528 43.6875 117.5Z" fill="#FFFFFF" stroke="none"/>
</g>
<g opacity="1" vectornator:layerName="Curve 51">
<path d="M40.1211 121.001C41.5109 120.235 42.5785 119.254 43.7563 118.188" fill="#FFFFFF" fill-rule="nonzero" stroke="none"/>
<path d="M43.625 118.094C41.6811 119.207 42.5052 118.664 41.6875 119.219C41.278 119.497 42.548 118.732 43.0312 118.625C43.2884 118.568 42.6005 118.926 42.375 119.062C41.8358 119.388 41.6028 119.498 41.0312 119.75C40.8201 119.843 40.18 120.123 40.375 120C41.4332 119.331 40.3737 119.998 39.7188 120.312C39.4743 120.452 39.4732 120.874 39.6875 121.25C39.9018 121.626 40.2556 121.827 40.5 121.688C42.1913 119.987 41.357 120.629 42.1875 119.969C42.5988 119.642 41.4642 120.741 41.1875 121.188C41.0368 121.431 41.6167 120.802 41.8125 120.594C42.1715 120.211 42.4781 119.81 42.8125 119.406C42.9741 119.211 43.4925 118.634 43.3125 118.812C42.3629 119.754 43.3228 118.808 43.9062 118.281C43.9398 118.233 43.8873 118.145 43.8125 118.094C43.7377 118.042 43.6586 118.045 43.625 118.094Z" fill="#FFFFFF" stroke="none"/>
</g>
<g opacity="1" vectornator:layerName="Curve 52">
<path d="M40.7524 121.422C41.6605 120.943 42.4019 120.379 43.1627 119.691" fill="#FFFFFF" fill-rule="nonzero" stroke="none"/>
<path d="M43.0312 119.594C41.721 120.154 42.2545 119.826 41.7188 120.156C41.4456 120.325 42.3354 119.937 42.6562 119.938C42.826 119.938 42.343 120.088 42.1875 120.156C41.8026 120.324 41.684 120.338 41.2812 120.438C41.1387 120.473 40.7116 120.626 40.8438 120.562C41.5602 120.217 40.8386 120.552 40.4062 120.719C40.1524 120.842 40.0921 121.266 40.2812 121.656C40.4704 122.047 40.8399 122.248 41.0938 122.125C42.1938 120.954 41.6351 121.408 42.1875 120.969C42.4657 120.748 41.7061 121.503 41.5312 121.812C41.4352 121.983 41.841 121.523 41.9688 121.375C42.0477 121.284 42.5124 120.638 42.5938 120.531C42.6954 120.397 43.0214 120.003 42.9062 120.125C42.2888 120.782 42.8973 120.12 43.2812 119.781C43.3159 119.734 43.2918 119.647 43.2188 119.594C43.1457 119.541 43.0659 119.546 43.0312 119.594Z" fill="#FFFFFF" stroke="none"/>
</g>
<g opacity="1" vectornator:layerName="Curve 53">
<path d="M38.7196 120.404C39.7367 119.518 40.5623 118.48 41.4906 117.511" fill="#FFFFFF" fill-rule="nonzero" stroke="none"/>
<path d="M41.5312 117.406C41.4453 117.365 41.3702 117.382 41.3438 117.438C39.6926 118.691 40.3631 118.08 39.6875 118.688C39.3368 119.003 40.4526 118.147 40.875 117.938C41.089 117.831 40.5029 118.231 40.3125 118.375C39.7735 118.784 39.6927 118.823 39.125 119.188C38.9372 119.308 38.3874 119.701 38.5625 119.562C39.4761 118.841 38.5535 119.546 38.0312 119.938C37.8664 120.184 38.0269 120.59 38.4062 120.844C38.7856 121.097 39.2414 121.122 39.4062 120.875C40.5117 119.257 39.9717 119.858 40.5312 119.25C40.6377 119.037 40.7246 118.831 40.8438 118.625C40.9502 118.441 41.3025 117.884 41.1875 118.062C40.5897 118.991 41.2008 118.081 41.6562 117.594C41.6827 117.538 41.6172 117.447 41.5312 117.406ZM40.5312 119.25C40.7767 118.993 40.0681 119.966 39.875 120.344C39.7694 120.55 40.1339 119.951 40.25 119.75C40.3477 119.581 40.4438 119.424 40.5312 119.25Z" fill="#FFFFFF" stroke="none"/>
</g>
<g opacity="1" vectornator:layerName="Curve 54">
<path d="M38.2931 120.652C39.5547 119.612 40.6415 118.398 41.7724 117.217" fill="#FFFFFF" fill-rule="nonzero" stroke="none"/>
<path d="M41.8125 117.125C41.7276 117.083 41.6522 117.101 41.625 117.156C39.6386 118.665 40.4482 117.931 39.625 118.656C39.2017 119.029 40.5577 117.971 41.0625 117.719C41.3179 117.591 40.6018 118.108 40.375 118.281C39.7571 118.753 39.6191 118.828 38.9688 119.25C38.742 119.397 38.0695 119.856 38.2812 119.688C39.3754 118.819 38.3002 119.685 37.6562 120.156C37.4788 120.389 37.6113 120.789 37.9688 121.062C38.3262 121.336 38.76 121.389 38.9375 121.156C40.4304 119.229 39.6816 119.995 40.4375 119.219C40.5839 118.983 40.7506 118.761 40.9062 118.531C41.0542 118.313 41.5335 117.664 41.375 117.875C40.5609 118.958 41.3748 117.873 41.9375 117.281C41.9647 117.226 41.8974 117.167 41.8125 117.125ZM40.4375 119.219C40.8115 118.835 39.805 120.101 39.5312 120.562C39.3879 120.804 39.8711 120.106 40.0312 119.875C40.178 119.664 40.3017 119.437 40.4375 119.219Z" fill="#FFFFFF" stroke="none"/>
</g>
<g opacity="1" vectornator:layerName="Curve 55">
<path d="M42.1229 98.4055C41.1313 99.1155 40.1108 99.7488 39.0457 100.342" fill="#FFFFFF" fill-rule="nonzero" stroke="none"/>
<path d="M41.625 97.7812C40.2944 98.9881 41.0832 98.3616 40.3125 99C40.156 99.1296 40.8939 98.4559 40.7812 98.625C40.5581 98.9598 39.6805 99.7806 39.9688 99.5C40.5408 98.9431 39.9596 99.5216 38.9688 100.219C38.919 100.245 38.9282 100.298 38.9688 100.375C39.0093 100.452 39.0752 100.495 39.125 100.469C40.8073 99.7661 40.0221 100.152 40.8125 99.7812C40.8427 99.7671 40.8398 99.7665 40.875 99.75C41.1532 99.6536 41.654 99.4765 41.4688 99.5625C40.7083 99.9155 41.4747 99.5762 42.625 99.0312C42.8461 98.8555 42.8016 98.4339 42.5312 98.0938C42.2609 97.7536 41.8461 97.6056 41.625 97.7812Z" fill="#FFFFFF" stroke="none"/>
</g>
<g opacity="1" vectornator:layerName="Curve 56">
<path d="M43.1299 98.4338C41.844 99.3651 40.499 99.9985 39.0513 100.63" fill="#FFFFFF" fill-rule="nonzero" stroke="none"/>
<path d="M42.6562 97.8125C40.8415 99.1412 41.6703 98.6322 40.8125 99.1562C40.382 99.4192 41.6162 98.5164 42.0625 98.2812C42.2711 98.1714 41.7371 98.5917 41.5625 98.75C41.0952 99.1737 40.8942 99.352 40.375 99.7188C40.1616 99.8695 39.5193 100.325 39.7188 100.156C40.6701 99.3505 39.713 100.153 39 100.469C38.9439 100.483 38.9161 100.57 38.9375 100.656C38.9589 100.743 39.0377 100.795 39.0938 100.781C40.1604 100.372 39.9837 100.425 40.1562 100.375C40.3438 100.316 40.4277 100.29 40.5625 100.25C41.0768 100.099 41.588 99.959 42.0938 99.7812C42.3643 99.6862 43.1785 99.3786 42.9062 99.4688C41.633 99.8903 42.8996 99.4816 43.625 99.0625C43.8465 98.8874 43.8007 98.4658 43.5312 98.125C43.2618 97.7842 42.8778 97.6374 42.6562 97.8125Z" fill="#FFFFFF" stroke="none"/>
</g>
<g opacity="1" vectornator:layerName="Curve 57">
<path d="M42.4686 98.9277C41.0139 99.4913 39.4499 99.8245 38.142 100.696" fill="#FFFFFF" fill-rule="nonzero" stroke="none"/>
<path d="M42.375 98.0938C40.2146 99.3227 41.189 98.8361 40.2188 99.3438C39.7137 99.608 41.2205 98.7644 41.6875 98.4375C41.9118 98.2805 41.2066 98.6769 40.9688 98.8125C40.4667 99.0986 39.9617 99.4172 39.4688 99.7188C39.2296 99.865 38.5043 100.291 38.75 100.156C39.9686 99.4867 38.7514 100.157 38.0625 100.562C38.0134 100.59 38.0202 100.674 38.0625 100.75C38.1048 100.826 38.1696 100.871 38.2188 100.844C40.385 100.304 39.447 100.672 40.375 100.281C40.8413 100.085 39.3799 100.469 38.875 100.438C38.6322 100.422 39.325 100.303 39.5625 100.25C40.1884 100.11 40.3946 100.133 41.0312 100.062C41.287 100.034 42.0295 99.9009 41.7812 99.9688C40.599 100.292 41.8022 99.9584 42.5625 99.75C42.859 99.7204 43.0455 99.3312 43 98.875C42.9545 98.4188 42.6715 98.0642 42.375 98.0938Z" fill="#FFFFFF" stroke="none"/>
</g>
<g opacity="1" vectornator:layerName="Curve 58">
<path d="M41.6852 98.0775C40.3979 98.5762 39.153 99.0953 37.9315 99.7386" fill="#FFFFFF" fill-rule="nonzero" stroke="none"/>
<path d="M41.5625 97.2812C39.7258 98.4404 40.7476 97.8359 39.7188 98.4375C39.3964 98.6638 38.8707 99.0031 39.0938 98.875C39.9438 98.3867 39.0811 98.8756 37.875 99.5938C37.8212 99.6126 37.8147 99.6985 37.8438 99.7812C37.8728 99.864 37.915 99.8939 37.9688 99.875C39.8856 99.373 38.8547 99.7019 39.9062 99.375C40.1177 99.3093 39.0399 99.4762 39.25 99.4062C39.664 99.2684 40.9368 99.0265 40.5312 99.1875C39.7128 99.5124 40.523 99.168 41.8125 98.875C42.1022 98.8274 42.292 98.4456 42.2188 98C42.1455 97.5543 41.8522 97.2336 41.5625 97.2812Z" fill="#FFFFFF" stroke="none"/>
</g>
<g opacity="1" vectornator:layerName="Curve 59">
<path d="M41.1422 97.2706C39.6502 98.0564 38.1353 98.7792 36.7329 99.7142" fill="#FFFFFF" fill-rule="nonzero" stroke="none"/>
<path d="M40.8438 96.5312C38.7452 98.0528 39.9281 97.2495 38.75 98.0625C38.5111 98.2274 39.6364 97.3231 39.4062 97.5C38.9409 97.8577 37.5453 98.923 38.0312 98.5938C38.9922 97.9427 38.0489 98.6148 36.6562 99.5938C36.6082 99.6231 36.6112 99.7074 36.6562 99.7812C36.7013 99.8551 36.7645 99.8731 36.8125 99.8438C39.1232 98.9217 37.8606 99.503 39.125 98.9375C39.3835 98.8219 38.0234 99.1795 38.2812 99.0625C38.7844 98.8341 40.364 98.3365 39.875 98.5938C38.8989 99.1073 39.8749 98.5825 41.4375 98C41.7007 97.8945 41.7873 97.4987 41.625 97.0938C41.4627 96.6888 41.1069 96.4257 40.8438 96.5312Z" fill="#FFFFFF" stroke="none"/>
</g>
<g opacity="1" vectornator:layerName="Curve 60">
<path d="M40.417 96.9482C39.6368 97.3591 35.573 99.8434 36.716 98.8488" fill="#FFFFFF" fill-rule="nonzero" stroke="none"/>
<path d="M40.0938 96.2188C38.473 97.5742 38.8081 98.1542 38.4688 97.5938C38.4162 97.507 38.5753 97.4501 38.5938 97.375C38.0809 97.825 37.5403 98.2322 36.9688 98.5938C38.5269 98.0868 38.8774 97.5765 38.6562 98.2188C38.4418 98.8417 37.5344 98.744 36.8125 98.8438C36.7986 98.8109 36.819 98.7755 36.7812 98.75C36.7284 98.7797 36.6793 98.8161 36.625 98.8438C36.568 98.8559 36.4899 98.8578 36.4375 98.875C36.3635 98.8992 36.2885 99.0678 36.3125 99.1562C36.3142 99.1626 36.3252 99.1971 36.3438 99.2188C36.3554 99.2323 36.3698 99.2551 36.375 99.25C36.3851 99.2401 36.3961 99.2286 36.4062 99.2188C36.4381 99.2262 36.461 99.2503 36.4688 99.25C36.5593 99.2459 36.6712 99.2232 36.75 99.1875C36.9898 99.0787 37.2212 98.9646 37.4688 98.875C38.192 98.6132 38.9287 98.3746 39.6562 98.125C39.8912 98.0444 40.1182 97.9484 40.3438 97.8438C40.4717 97.7844 40.6254 97.7186 40.625 97.7188C39.2702 98.0575 40.647 97.7028 40.75 97.6562C41.0077 97.5404 41.0532 97.1465 40.875 96.75C40.6968 96.3535 40.3515 96.1029 40.0938 96.2188ZM36.7812 98.75C36.8523 98.71 36.9002 98.6371 36.9688 98.5938C36.7973 98.6495 36.8 98.696 36.5938 98.75C36.6269 98.7009 36.7057 98.699 36.7812 98.75ZM39.8125 96.4062C39.3613 96.7143 38.7638 96.99 38.625 97.3438C38.8885 97.1111 39.1522 96.8626 39.4375 96.6562C39.5192 96.5972 39.7246 96.4638 39.8125 96.4062Z" fill="#FFFFFF" stroke="none"/>
</g>
<g opacity="1" vectornator:layerName="Curve 61">
<path d="M39.5903 96.3393C38.1407 96.786 36.9086 97.7463 35.6564 98.5811" fill="#FFFFFF" fill-rule="nonzero" stroke="none"/>
<path d="M39.5312 95.5C37.5399 96.9779 38.4977 96.432 37.5625 96.9688C36.9662 97.311 38.6569 96.1289 39.1562 95.6562C39.2714 95.5473 38.856 95.7956 38.7188 95.875C38.5844 95.9528 38.4713 96.0366 38.3438 96.125C37.7668 96.5248 37.2619 97.0225 36.75 97.5C36.5626 97.6748 35.9797 98.1812 36.1875 98.0312C37.3242 97.2113 36.1876 98.0443 35.5625 98.4688C35.5179 98.5033 35.5093 98.5876 35.5625 98.6562C35.6157 98.7249 35.7054 98.7533 35.75 98.7188C37.6926 97.9549 36.979 98.3163 37.6875 97.9375C38.0872 97.7238 36.8282 98.2812 36.375 98.2812C36.1189 98.2813 36.8285 98.0417 37.0625 97.9375C37.6104 97.6936 38.1689 97.5122 38.75 97.375C38.8483 97.3518 38.964 97.3348 39.0625 97.3125C39.1543 97.2917 39.3994 97.2137 39.3125 97.25C38.1276 97.7454 39.3095 97.2659 39.625 97.1875C39.9259 97.1704 40.1513 96.7755 40.125 96.3125C40.0987 95.8495 39.8322 95.4829 39.5312 95.5Z" fill="#FFFFFF" stroke="none"/>
</g>
<g opacity="1" vectornator:layerName="Curve 62">
<path d="M39.5283 95.6191C38.2102 96.2683 37.007 96.8938 35.8818 97.8553" fill="#FFFFFF" fill-rule="nonzero" stroke="none"/>
<path d="M39.25 94.875C37.5121 96.3059 38.4766 95.5502 37.5 96.3125C37.3031 96.4662 38.2021 95.6032 38 95.75C37.5882 96.049 36.4567 97.0712 36.875 96.7812C37.7072 96.2044 36.882 96.7818 35.7812 97.75C35.7405 97.7899 35.7511 97.8747 35.8125 97.9375C35.8739 98.0003 35.9592 98.0086 36 97.9688C37.9086 97.1635 36.8662 97.6551 37.9062 97.1562C38.1193 97.0541 36.9864 97.3116 37.1875 97.1875C37.5726 96.9497 38.8814 96.5688 38.5 96.8125C37.7254 97.3075 38.4931 96.7852 39.8125 96.3438C40.0779 96.2426 40.1556 95.8458 40 95.4375C39.8444 95.0291 39.5154 94.7738 39.25 94.875Z" fill="#FFFFFF" stroke="none"/>
</g>
<g opacity="1" vectornator:layerName="Curve 63">
<path d="M38.8933 95.0064C37.8352 95.5275 36.9209 96.1968 36.0076 96.939" fill="#FFFFFF" fill-rule="nonzero" stroke="none"/>
<path d="M38.5938 94.2812C37.2423 95.5583 37.9109 95.0843 37.25 95.5625C36.9163 95.8039 37.8293 94.9644 38.0625 94.625C38.1894 94.4403 37.7192 94.9336 37.5625 95.0938C37.2714 95.3913 37.0254 95.7191 36.75 96.0312C36.62 96.1786 36.201 96.6038 36.3438 96.4688C37.102 95.7513 36.3357 96.476 35.875 96.8438C35.8364 96.8865 35.8717 96.9719 35.9375 97.0312C36.0033 97.0906 36.0864 97.074 36.125 97.0312C37.6592 96.3757 37.0197 96.7751 37.6562 96.4062C37.9791 96.2192 36.9663 96.6672 36.5938 96.6875C36.3973 96.6982 36.9137 96.4854 37.0938 96.4062C37.5448 96.2081 37.7176 96.1916 38.1875 96.0625C38.3541 96.0167 38.8435 95.8632 38.6875 95.9375C37.8454 96.3385 38.6839 95.9424 39.1875 95.75C39.4492 95.6417 39.5417 95.2151 39.375 94.8125C39.2083 94.4099 38.8555 94.1729 38.5938 94.2812Z" fill="#FFFFFF" stroke="none"/>
</g>
<g opacity="1" vectornator:layerName="Curve 64">
<path d="M38.364 95.9318C37.3967 96.4964 36.5107 97.1178 35.67 97.8606" fill="#FFFFFF" fill-rule="nonzero" stroke="none"/>
<path d="M37.9375 95.2812C36.7371 96.5254 37.4386 95.8477 36.75 96.5C36.6123 96.6304 37.1907 95.9227 37.0625 96.0625C36.7969 96.3522 36.0506 97.2304 36.3438 96.9688C36.9259 96.4492 36.3178 96.9572 35.5312 97.75C35.494 97.7944 35.5255 97.8802 35.5938 97.9375C35.662 97.9948 35.744 98.0131 35.7812 97.9688C37.2749 97.2841 36.4751 97.7016 37.2812 97.2812C37.4503 97.1931 36.5563 97.4435 36.7188 97.3438C37.0336 97.1505 38.088 96.7942 37.7812 97C37.1713 97.4093 37.7679 96.9836 38.7812 96.5938C39.0194 96.4441 39.0115 96.0226 38.7812 95.6562C38.551 95.2899 38.1756 95.1316 37.9375 95.2812Z" fill="#FFFFFF" stroke="none"/>
</g>
<g opacity="1" vectornator:layerName="Curve 65">
<path d="M42.7319 81.7695C35.7815 81.1922 47.4716 83.8972 35.7645 80.7595" fill="#FFFFFF" fill-rule="nonzero" stroke="none"/>
<path d="M35.9062 80.5938C35.8426 80.5463 35.7292 80.5896 35.6562 80.6875C35.5833 80.7854 35.5613 80.8901 35.625 80.9375C36.4072 81.1444 36.0405 81.055 36.4062 81.1562C36.3634 81.1452 36.7779 81.2579 36.9688 81.3125C37.331 81.4162 37.6828 81.5441 38.0312 81.6875C38.6453 81.9401 39.269 82.1952 39.875 82.4688C39.9864 82.5517 39.9957 82.7082 40.125 82.75C40.2437 82.7884 40.377 82.8191 40.5 82.8438C40.5906 82.8619 40.6861 82.8475 40.7812 82.875C40.8678 82.9 40.9624 82.9858 41.0312 82.9375C41.1793 82.8337 41.3181 82.6982 41.4688 82.5938C41.4771 82.5945 41.4921 82.5929 41.5 82.5938C41.6141 82.6063 41.9542 82.6563 41.8438 82.625C41.3906 82.4966 41.6479 82.565 41.5312 82.5312C41.8093 82.6004 42.1232 82.6724 42.25 82.6875C42.5784 82.8642 43.0406 82.599 43.3125 82.0938C43.5844 81.5885 43.5472 81.0205 43.2188 80.8438C42.8121 80.8286 43.1044 80.8503 42.8125 80.8438C42.9116 80.8476 42.6588 80.8167 42.5 80.8125C42.4496 80.8121 42.4521 80.8126 42.4062 80.8125C42.3321 80.8115 42.2618 80.8126 42.1875 80.8125C41.9536 80.8123 41.733 80.8286 41.5 80.8438C41.0201 80.8749 40.439 81.0979 40 81.4375C39.2757 81.3326 38.5585 81.2381 37.8438 81.0938C37.6433 81.0533 37.4481 80.9883 37.25 80.9375C37.0349 80.8823 36.3717 80.7846 36.5938 80.7812C38.8017 80.7478 36.6098 80.7828 35.9062 80.5938Z" fill="#FFFFFF" stroke="none"/>
</g>
<g opacity="1" vectornator:layerName="Curve 66">
<path d="M41.6289 79.3699C39.8445 79.4829 38.0244 79.6706 36.2524 79.9141" fill="#FFFFFF" fill-rule="nonzero" stroke="none"/>
<path d="M41.9375 78.4688C39.1164 79.1074 40.6792 78.7917 39.125 79.0938C38.6163 79.232 37.7864 79.4414 38.125 79.375C39.41 79.123 38.1369 79.3676 36.3125 79.7188C36.2473 79.7008 36.1526 79.7747 36.125 79.875C36.0974 79.9753 36.1223 80.0758 36.1875 80.0938C38.7429 80.1881 37.33 80.1881 38.75 80.1875C39.028 80.1874 37.6595 80.0013 37.9375 80C38.4965 79.9975 40.1831 80.1556 39.625 80.1875C38.4896 80.2525 39.6123 80.183 41.3125 80.2812C41.6408 80.3946 42.0444 80.0676 42.2188 79.5625C42.3931 79.0574 42.2658 78.5821 41.9375 78.4688Z" fill="#FFFFFF" stroke="none"/>
</g>
<g opacity="1" vectornator:layerName="Curve 67">
<path d="M40.9918 79.9114C34.7357 82.3805 35.4233 78.7059 35.4233 78.7059" fill="#FFFFFF" fill-rule="nonzero" stroke="none"/>
<path d="M35.4062 78.5625C35.2849 78.5886 35.2018 78.6711 35.2188 78.75C35.521 78.8511 35.433 78.853 35.6562 78.9375C35.6545 78.8598 35.6068 78.7181 35.625 78.7188C37.3769 78.7853 35.6475 78.7151 35.6562 78.6562C35.6393 78.5774 35.5276 78.5364 35.4062 78.5625ZM35.6562 78.9375C37.6118 79.678 37.1335 79.9066 38.1562 79.75C39.0708 79.61 36.866 79.1972 35.6562 78.9375ZM35.6562 78.9375C35.5158 78.9074 35.292 78.8686 35.1875 78.8438C35.1848 78.8431 35.1582 78.9626 35.1875 79.3125C35.2082 79.56 35.2884 79.8132 35.4062 80.0312C36.1387 81.3868 37.8648 81.3836 39.2188 81.1875C39.5946 81.1331 39.9456 81.0736 40.3125 80.9688C40.4468 80.9304 40.8155 80.931 40.6875 80.875C38.8891 80.0883 40.6921 80.8538 41.0938 80.7188C41.3864 80.6786 41.593 80.2939 41.5312 79.8438C41.4695 79.3936 41.1676 79.0536 40.875 79.0938C38.2565 78.8749 39.092 78.6377 38.25 78.875C37.5164 79.0817 39.7952 79.0522 40.5312 79.25C40.541 79.2526 39.8798 79.5292 39.875 79.5312C39.6804 79.6134 39.5072 79.6992 39.3125 79.7812C38.5206 80.1148 37.5942 80.4619 36.7188 80.3125C36.2103 80.2257 35.8343 79.9715 35.6875 79.4688C35.6593 79.3722 35.6604 79.125 35.6562 78.9375Z" fill="#FFFFFF" stroke="none"/>
</g>
<g opacity="1" vectornator:layerName="Curve 68">
<path d="M39.9414 78.845C39.0454 78.9147 38.2128 79.1621 37.3423 79.3752" fill="#FFFFFF" fill-rule="nonzero" stroke="none"/>
<path d="M40.2188 77.9375C38.7899 78.5704 39.4291 78.4005 38.7812 78.5625C38.6006 78.6725 38.4038 78.7727 38.2188 78.875C38.073 78.9556 37.6304 79.1642 37.7812 79.0938C38.5929 78.7146 37.7761 79.0792 37.3438 79.1875C37.2809 79.1818 37.2275 79.2783 37.2188 79.375C37.21 79.4717 37.2496 79.5568 37.3125 79.5625C38.4828 79.6653 37.9817 79.7064 38.5 79.6562C38.7545 79.6316 37.9681 79.5708 37.75 79.4375C37.6318 79.3653 38.0497 79.4555 38.1875 79.4688C38.5607 79.5046 38.5847 79.5222 38.9375 79.625C39.051 79.6581 39.3993 79.7246 39.2812 79.7188C38.6279 79.6864 39.2701 79.7207 39.6562 79.75C39.9832 79.8485 40.3798 79.5343 40.5312 79.0312C40.6827 78.5282 40.5457 78.036 40.2188 77.9375ZM38.7812 78.5625C38.4391 78.648 39.4255 78.2583 39.7188 78.0625C39.8801 77.9548 39.3594 78.2228 39.1875 78.3125C39.0485 78.385 38.9152 78.4809 38.7812 78.5625Z" fill="#FFFFFF" stroke="none"/>
</g>
<g opacity="1" vectornator:layerName="Curve 69">
<path d="M39.6132 78.1767C38.6774 78.2795 37.7728 78.4626 36.8631 78.7059" fill="#FFFFFF" fill-rule="nonzero" stroke="none"/>
<path d="M39.8438 77.2812C38.3594 77.9112 39.1915 77.6077 38.375 77.9062C38.2065 77.9678 39.0035 77.5434 38.8438 77.625C38.5004 77.8003 37.4496 78.3176 37.8125 78.1875C38.5123 77.9367 37.8083 78.1826 36.875 78.5312C36.812 78.5252 36.7594 78.5906 36.75 78.6875C36.7406 78.7844 36.7808 78.8689 36.8438 78.875C38.1095 78.9757 37.4203 78.9644 38.125 78.9688C38.2683 78.9696 37.5755 78.7842 37.7188 78.7812C37.9956 78.7755 38.8064 78.938 38.5312 78.9688C37.9694 79.0316 38.537 78.9841 39.375 79.0938C39.7003 79.1783 40.0574 78.8441 40.1875 78.3438C40.3176 77.8434 40.169 77.3658 39.8438 77.2812Z" fill="#FFFFFF" stroke="none"/>
</g>
<g opacity="1" vectornator:layerName="Curve 70">
<path d="M39.1964 77.1745C38.0554 77.3668 38.7214 77.209 37.2308 77.769" fill="#FFFFFF" fill-rule="nonzero" stroke="none"/>
<path d="M39.4062 76.2812C38.3135 76.9471 38.8931 76.655 38.3125 76.9375C38.0092 77.0851 38.8573 76.5803 39.125 76.375C39.1833 76.3303 39.0026 76.4347 38.9375 76.4688C38.8795 76.4991 38.8072 76.5306 38.75 76.5625C38.5038 76.6996 38.3047 76.807 38.0938 77C37.9911 77.0939 37.6598 77.349 37.7812 77.2812C38.3349 76.9723 37.7953 77.277 37.2188 77.5938C37.1603 77.6019 37.1125 77.6913 37.125 77.7812C37.1375 77.8712 37.1915 77.9456 37.25 77.9375C38.1229 78.0089 37.7564 78.0574 38.125 78C38.2365 77.9827 37.8264 77.8831 37.875 77.7812C37.9263 77.6738 38.1004 77.8002 38.2188 77.8125C38.5194 77.8438 38.2862 77.8736 38.4688 77.9688C38.5568 78.0146 38.8489 78.0704 38.75 78.0625C38.2487 78.0226 38.7566 78.0557 39 78.0625C39.3232 78.1333 39.6724 77.8097 39.7812 77.3125C39.8901 76.8153 39.7294 76.352 39.4062 76.2812Z" fill="#FFFFFF" stroke="none"/>
</g>
<g opacity="1" vectornator:layerName="Curve 71">
<path d="M39.0797 76.4771C38.2268 76.6927 37.45 77.0423 36.5999 77.2503" fill="#FFFFFF" fill-rule="nonzero" stroke="none"/>
<path d="M39.125 75.625C37.9311 76.3219 38.395 76.1497 37.9375 76.3125C37.9481 76.3104 37.8528 76.3516 37.875 76.3438C37.7218 76.468 37.5692 76.608 37.4062 76.7188C37.2778 76.806 36.9012 77.0536 37.0312 76.9688C37.7277 76.5146 37.0383 76.9504 36.625 77.0625C36.5627 77.059 36.5054 77.1542 36.5 77.25C36.4946 77.3458 36.5314 77.434 36.5938 77.4375C37.819 77.3967 37.2831 77.4759 37.8125 77.375C38.0752 77.3249 37.2909 77.3767 37.0312 77.3125C36.8932 77.2784 37.2953 77.2819 37.4375 77.2812C37.8897 77.2793 37.8371 77.2999 38.2812 77.3438C38.4065 77.3561 38.782 77.3696 38.6562 77.375C37.9697 77.4046 38.6417 77.3834 39.0312 77.3438C39.3418 77.3578 39.6347 76.9777 39.6562 76.5C39.6778 76.0223 39.4355 75.639 39.125 75.625Z" fill="#FFFFFF" stroke="none"/>
</g>
<g opacity="1" vectornator:layerName="Curve 72">
<path d="M38.8103 76.0817C37.8091 76.3845 36.8439 76.7521 35.9058 77.2159" fill="#FFFFFF" fill-rule="nonzero" stroke="none"/>
<path d="M38.7812 75.25C37.3229 76.1619 38.1259 75.6967 37.3125 76.1562C37.1465 76.25 37.9068 75.6728 37.75 75.7812C37.4185 76.0104 36.4272 76.6925 36.7812 76.5C37.4716 76.1247 36.8086 76.5134 35.875 77.0625C35.8196 77.078 35.7886 77.1648 35.8125 77.25C35.8364 77.3352 35.8821 77.3905 35.9375 77.375C37.3837 77.1527 36.6135 77.3279 37.4062 77.1562C37.5678 77.1213 36.7464 77.1044 36.9062 77.0625C37.2179 76.9809 38.1806 76.9293 37.875 77.0312C37.2561 77.2378 37.8775 77.0341 38.8438 76.9375C39.1467 76.9264 39.3609 76.5285 39.3438 76.0625C39.3266 75.5965 39.0842 75.2389 38.7812 75.25Z" fill="#FFFFFF" stroke="none"/>
</g>
<g opacity="1" vectornator:layerName="Curve 73">
<path d="M41.9387 64.3196C46.1682 61.8395 44.0132 63.3779 48.2291 59.4839" fill="#FFFFFF" fill-rule="nonzero" stroke="none"/>
<path d="M48.0312 59.3438C44.7088 61.3134 45.8922 60.451 44.6875 61.3125C43.8193 61.9334 46.5616 60.2588 47.5312 59.8125C47.712 59.7293 47.2421 60.0861 47.0938 60.2188C46.7343 60.5401 46.331 60.8177 45.9375 61.0938C44.909 61.8153 44.2625 62.0953 43.125 62.5C42.7321 62.6398 42.7398 62.6271 42.3438 62.8125C42.1891 62.8849 41.7604 63.1201 41.9062 63.0312C43.9399 61.7921 41.8932 63.0165 41.375 63.2812C41.0045 63.4833 40.9704 64.1175 41.2812 64.6875C41.5921 65.2575 42.1295 65.5458 42.5 65.3438C45.4679 62.4777 44.2175 63.4982 45.4688 62.5C46.3971 61.7594 43.7716 64.1561 42.9688 65.0312C42.8569 65.1531 43.2395 64.8449 43.375 64.75C43.4933 64.6671 43.6352 64.5878 43.75 64.5C44.0193 64.294 44.2657 64.0854 44.5312 63.875C45.482 63.1216 46.1856 62.1835 46.9062 61.2188C47.1774 60.8557 47.1627 60.8036 47.5 60.4688C47.64 60.3298 48.079 59.9563 47.9375 60.0938C46.1266 61.8537 47.9417 60.085 48.4375 59.625C48.4862 59.5503 48.4275 59.4187 48.3125 59.3438C48.1975 59.2688 48.08 59.269 48.0312 59.3438Z" fill="#FFFFFF" stroke="none"/>
</g>
<g opacity="1" vectornator:layerName="Curve 74">
<path d="M43.844 65.6656C41.3173 66.5819 40.5362 61.8871 42.6018 61.4752" fill="#FFFFFF" fill-rule="nonzero" stroke="none"/>
<path d="M42.5938 61.3125C42.6347 61.4891 42.5968 61.4706 42.625 61.625C42.6705 61.6038 42.7172 61.5454 42.7188 61.4688C42.7206 61.3739 42.6554 61.3137 42.5938 61.3125ZM42.625 61.625C42.6142 61.6301 42.6056 61.6565 42.5938 61.6562C42.553 61.6679 42.5919 61.7524 42.5938 61.8125C42.6083 61.8363 42.6411 61.8507 42.6562 61.875C42.6407 61.7647 42.6476 61.7488 42.625 61.625ZM42.6562 61.875C42.9089 63.6623 42.4293 63.9977 43.2188 63.9062C43.3817 63.8874 43.4072 63.7945 43.4375 63.6875C43.4424 63.7208 43.5152 63.9664 43.625 64.1562C43.611 63.9573 43.4971 63.8222 43.4375 63.6562C43.5135 63.2663 43.0564 62.5185 42.6562 61.875ZM43.625 64.1562C43.6425 64.4057 43.6376 64.6545 43.6875 64.875C43.7002 64.9309 43.5573 64.9046 43.5 64.9062C43.2623 64.9129 43.0693 64.8492 42.875 64.7188C42.3815 64.3874 42.0321 63.9215 41.875 63.3438C41.7606 62.9232 41.6956 62.4033 41.9688 62.0312C41.9835 62.0112 42.3416 61.6572 42.375 61.7188C42.8166 62.5326 42.6015 62.0666 42.5938 61.8125C42.5081 61.6726 42.3991 61.4886 42.3438 61.375C42.2977 61.2804 42.1504 61.4734 42.0625 61.5312C41.7269 61.7523 41.49 62.0866 41.3125 62.4375C40.8463 63.3592 40.7729 64.6043 41.1875 65.5625C41.4821 66.2432 42.1387 66.6467 42.875 66.6562C43.045 66.6584 43.3838 66.7948 43.375 66.625C43.2825 64.8334 43.3877 66.6313 43.8125 66.5312C44.122 66.5415 44.3905 66.1636 44.4062 65.6875C44.422 65.2114 44.1845 64.8228 43.875 64.8125C43.6137 64.1651 43.7777 64.4204 43.625 64.1562Z" fill="#FFFFFF" stroke="none"/>
</g>
<g opacity="1" vectornator:layerName="Curve 75">
<path d="M41.608 63.6765C43.9787 62.9977 41.6927 70.0011 45.9046 64.1459" fill="#FFFFFF" fill-rule="nonzero" stroke="none"/>
<path d="M42.25 62.7188C42.149 62.7205 41.8435 62.7129 41.9375 62.75C43.1841 63.2418 41.9454 62.7377 41.7188 62.7812C41.4023 62.744 41.0885 63.1069 41.0312 63.5938C40.974 64.0806 41.1835 64.5253 41.5 64.5625C41.5394 64.5593 41.5248 64.5652 41.5625 64.5625C42.2464 65.1747 42.2274 67.1111 43.4688 66.9375C44.2839 66.8235 44.7215 66.0065 45.1562 65.4062C45.1964 65.3508 45.5619 64.9166 45.5938 64.875C45.6751 64.7688 45.9459 64.5413 45.8125 64.5312C45.2709 64.4906 45.3796 64.4843 45.4375 64.4688C45.4596 64.5516 45.3204 64.6581 45.25 64.75C45.1779 64.8442 45.1062 64.9392 45.0312 65.0312C44.8455 65.2594 44.1523 65.9593 43.8125 66.0312C43.8487 66.0038 43.7908 65.9506 43.7812 65.9062C43.7373 65.7027 43.7487 65.4885 43.75 65.2812C43.7517 65.0179 43.6682 64.751 43.6562 64.4688C43.7019 64.4218 43.7019 64.4694 43.7812 64.375C43.8379 64.3076 43.6305 64.3794 43.625 64.3438C43.6041 64.052 43.6518 63.7543 43.5312 63.5C43.3306 63.0765 42.9626 62.8097 42.5 62.75C42.4099 62.7384 42.3409 62.7172 42.25 62.7188ZM45.4375 64.4688C45.4347 64.4581 45.48 64.4473 45.4688 64.4375C45.4633 64.4328 45.4433 64.4422 45.4375 64.4375C45.3314 64.4543 45.4682 64.4605 45.4375 64.4688ZM45.4375 64.4375C45.6616 64.402 45.9852 64.3364 46.0938 64.1875C46.11 64.1232 46.0365 64.0563 45.9375 64.0312C45.8385 64.0062 45.735 64.0294 45.7188 64.0938C43.7119 63.4409 44.3167 62.9496 43.7188 63.4375C43.203 63.8583 44.9081 64.008 45.4375 64.4375Z" fill="#FFFFFF" stroke="none"/>
</g>
<g opacity="1" vectornator:layerName="Curve 76">
<path d="M46.2175 65.5054C42.1479 61.8754 52.2732 66.6117 45.6869 60.1746" fill="#FFFFFF" fill-rule="nonzero" stroke="none"/>
<path d="M45.875 60.0312C45.8228 59.963 45.6988 59.9822 45.5938 60.0625C45.4887 60.1428 45.4478 60.2442 45.5 60.3125C45.393 63.2763 44.6211 62.5272 45.375 63.2812C45.5296 63.4358 45.6362 63.3986 45.6875 63.25C45.8415 62.8041 45.6416 61.3316 45.875 60.7188C45.9341 60.5635 46.1045 60.9418 46.2188 61.0625C46.3218 61.1713 46.4338 61.2923 46.5312 61.4062C46.8758 61.8093 47.154 62.2857 47.3438 62.7812C47.4051 62.9415 47.4584 63.1086 47.4688 63.2812C47.4694 63.2918 47.4705 63.2959 47.4688 63.3125C47.3424 63.3035 47.222 63.288 47.0938 63.2812C47.0401 63.2784 46.9905 63.2851 46.9375 63.2812C46.9392 62.9084 46.9281 62.8032 46.5 62.4062C46.1925 62.1212 46.3338 62.6246 46.5312 63.25C46.2517 63.2269 45.95 63.2225 45.6875 63.25C45.314 63.2892 44.9729 63.4239 44.625 63.75C44.0865 64.2548 44.1452 64.8618 44.5312 65.4062C44.6224 65.5348 44.7398 65.6954 44.8438 65.8125C44.9094 65.8865 45.0509 66.0983 45.0625 66C45.2855 64.109 45.0514 66.0174 45.2812 66.25C45.5477 66.5855 46.1713 66.5349 46.6875 66.125C47.2037 65.7152 47.4226 65.0855 47.1562 64.75C47.0902 64.5047 47.1338 64.56 47.0938 64.375C47.7756 64.185 48.5586 63.8172 48.4688 63C48.3853 62.2412 47.4089 61.62 46.9375 61.125C46.833 61.0152 46.7292 60.8913 46.625 60.7812C46.5097 60.6595 46.259 60.2401 46.2812 60.4062C46.4772 61.871 46.2672 60.4208 45.875 60.0312ZM47.4688 63.3438C47.4653 63.3745 47.4574 63.4239 47.4688 63.4062C47.6671 63.0984 47.3654 63.5194 47.4062 63.4375C47.4237 63.4025 47.4425 63.3696 47.4688 63.3438ZM46.875 64.4375C46.8803 64.4707 46.9034 64.533 46.9062 64.5625C46.9105 64.6063 46.8552 64.5157 46.8125 64.4688C46.8328 64.4641 46.8541 64.4425 46.875 64.4375Z" fill="#FFFFFF" stroke="none"/>
</g>
<g opacity="1" vectornator:layerName="Curve 77">
<path d="M48.938 62.5757C45.2644 59.0383 50.405 64.2879 45.8403 59.2985" fill="#FFFFFF" fill-rule="nonzero" stroke="none"/>
<path d="M46.0312 59.1562C45.9804 59.0867 45.857 59.1093 45.75 59.1875C45.643 59.2657 45.6054 59.368 45.6562 59.4375C46.8157 61.3486 46.2755 60.7463 46.8125 61.3438C47.1804 61.7424 46.1708 60.3029 45.9062 59.75C45.8532 59.6391 46.074 59.9086 46.1562 60C46.4286 60.3026 46.3421 60.1904 46.5312 60.5312C46.5846 60.6274 46.7084 60.928 46.875 61.2188C46.8541 61.2601 46.8226 61.3038 46.8125 61.3438C46.819 61.3509 46.8057 61.3675 46.8125 61.375C46.7774 61.547 46.7869 61.69 46.9062 61.8125C46.9035 61.8127 46.8759 61.8117 46.875 61.8125C46.8368 61.8484 46.9416 61.9239 46.9688 61.9688C47.1603 62.2855 47.3858 62.59 47.625 62.875C47.6824 62.9434 47.8257 63.1712 47.7812 63.0938C47.0792 61.8714 47.8015 63.0868 48 63.3125C48.263 63.6516 48.8846 63.5922 49.4062 63.1875C49.9279 62.7828 50.138 62.1828 49.875 61.8438C48.6731 61.0049 48.8245 61.087 48.6875 61C48.653 60.9795 48.6275 60.9576 48.5938 60.9375C48.3429 60.7877 48.0904 60.7146 47.8438 60.6875C47.5158 60.4634 47.1339 60.2297 47.0312 60.1562C46.6967 59.9167 46.8474 60.0294 46.5625 59.7188C46.4793 59.628 46.2086 59.4027 46.3125 59.4688C47.5218 60.2371 46.3049 59.4558 46.0312 59.1562ZM48.6875 61C49.1057 61.2993 49.3327 61.4408 49.6562 61.6562C49.7335 61.7077 49.511 61.5254 49.4375 61.4688C49.2609 61.3326 49.071 61.2016 48.875 61.0938C48.8068 61.0562 48.752 61.0383 48.6875 61Z" fill="#FFFFFF" stroke="none"/>
</g>
<g opacity="1" vectornator:layerName="Curve 78">
<path d="M42.4686 63.8525C42.5829 66.4225 47.5655 55.0057 43.8371 65.3644" fill="#FFFFFF" fill-rule="nonzero" stroke="none"/>
<path d="M45.625 60.5C45.2923 60.314 44.859 60.6176 44.625 60.8438C43.9743 61.4725 43.4875 62.2481 42.9062 62.9375C42.8856 62.962 42.8181 63.0397 42.7812 63.0938C42.5957 63.0901 42.4216 63.0524 42.2188 63.125C41.6093 63.3431 41.2332 63.8538 41.375 64.25C42.5054 64.8155 42.6202 64.3293 42.5 64.8125C42.4056 65.1918 41.7598 64.5061 41.375 64.4375C41.3069 64.4254 41.4122 64.5607 41.4375 64.625C41.4648 64.6945 41.4845 64.7544 41.5312 64.8125C41.7038 65.027 41.8944 65.1458 42.1875 65.1562C43.0723 65.1878 43.6684 64.5133 44.1562 63.75C44.1136 63.8939 44.1127 64.0447 44.0625 64.1875C44.0256 64.2924 43.9612 64.3765 43.9375 64.5C44.0344 64.5932 44.1535 64.7652 44.2812 64.7188C44.4691 64.6504 44.4024 64.3448 44.4688 64.1562C44.5286 63.9861 44.5902 63.8241 44.6562 63.6562C44.9055 63.0226 45.2081 62.4108 45.4688 61.7812C45.5809 61.5104 46.0425 60.7334 45.625 60.5ZM43.9375 64.5C43.9004 64.4643 43.8275 64.3564 43.8125 64.4062C43.7848 64.4981 43.8747 64.6248 43.875 64.6562C43.9094 64.6257 43.9257 64.5617 43.9375 64.5ZM43.875 64.6562C43.8549 64.6742 43.8763 64.7493 43.8438 64.75C42.9989 64.7669 43.8474 64.7542 43.625 65.375C43.63 65.4508 43.7271 65.5077 43.8438 65.5C43.9604 65.4923 44.0675 65.4196 44.0625 65.3438C43.8876 64.6486 43.8759 64.7432 43.875 64.6562Z" fill="#FFFFFF" stroke="none"/>
</g>
<g opacity="1" vectornator:layerName="Curve 43">
<path d="M106.681 77.2878C105.831 75.5929 101.235 77.91 101.566 79.777" fill="#FFFFFF" fill-rule="nonzero" stroke="none"/>
<path d="M105.719 75.875C104.443 76.0219 103.109 76.9409 102.344 77.75C102.007 78.106 101.623 78.596 101.438 79.0625C101.315 79.3708 101.306 79.5966 101.312 79.5938C101.938 79.3284 101.723 79.4247 101.781 79.4062C101.785 79.3599 101.802 79.3277 101.812 79.2812C102.051 78.229 103.374 77.6165 104.344 77.5C104.659 77.4622 104.947 77.4668 105.25 77.5625C105.256 77.5644 105.304 77.6018 105.344 77.625C106.113 77.2467 107.08 76.7462 107.531 76.4062C107.624 76.3361 107.378 76.2531 107.281 76.1875C107.184 76.1213 107.047 76.0754 106.938 76.0312C106.547 75.8733 106.144 75.826 105.719 75.875ZM105.344 77.625C104.515 78.0327 103.925 78.312 104.531 78.25C105.139 78.1879 105.13 78.1848 105.375 78C105.052 78.0969 104.676 78.2715 105.594 77.7812C105.625 77.7643 105.449 77.6858 105.344 77.625ZM101.781 79.4062C101.779 79.4285 101.759 79.474 101.781 79.4688C101.834 79.4562 101.935 79.3974 102 79.375C102.194 79.2676 101.84 79.3877 101.781 79.4062ZM102 79.375C101.721 79.5295 101.336 79.7396 101.344 79.8438C101.371 79.923 101.503 79.9489 101.625 79.9062C101.747 79.8636 101.809 79.7668 101.781 79.6875C103.717 78.8013 103.263 79.3619 103.719 78.8125C104.123 78.3251 102.752 79.1153 102 79.375ZM107.688 76.6562C106.124 77.4449 105.656 77.781 105.406 77.9688C105.505 77.9423 105.639 77.902 105.656 77.9375C105.886 78.3042 106.53 78.2907 107.094 77.9375C107.658 77.5843 107.917 77.023 107.688 76.6562Z" fill="#FFFFFF" stroke="none"/>
</g>
<g opacity="1" vectornator:layerName="Curve 79">
<path d="M83.1562 46.6562C82.6951 46.804 82.4039 47.169 82.5 47.4688C80.9742 50.8446 81.1283 49.2878 80.9688 50.8438C80.9313 51.2088 81.1606 50.785 81.375 50.4062C80.9982 50.9647 80.6042 51.5208 80.25 52.0938C80.0236 52.4601 79.4696 53.6381 79.6562 53.25C80.5851 51.3189 79.663 53.2412 79.4375 54.2188C79.9653 55.715 82.2607 56.2808 84.5625 55.4688C86.8643 54.6567 88.3091 52.7775 87.7812 51.2812C86.4899 49.7283 86.2812 49.7447 86.1562 49.5312C85.7131 49.2559 85.256 49.0092 84.875 48.6562C84.6282 48.4276 83.9379 47.6807 84.1875 47.9062C85.4053 49.0067 84.1809 47.9132 84.1562 46.9375C84.0602 46.6378 83.6174 46.5085 83.1562 46.6562ZM86.1562 49.5312C86.342 49.6466 86.5107 49.7793 86.6875 49.9062C86.9477 50.093 87.6212 50.7999 87.4062 50.5625C86.9511 50.0599 85.8184 48.4638 85.9688 49.125C86.0456 49.4629 86.1064 49.446 86.1562 49.5312ZM82.5312 48.4688C82.8018 48.1171 82.1263 49.2398 81.9062 49.625C81.8434 49.735 81.7543 49.83 81.6875 49.9375C81.9732 49.3859 82.2957 48.7749 82.5312 48.4688Z" fill="#FFFFFF" stroke="none"/>
</g>
<path d="M74.0634 84.2767C74.0634 78.3509 81.1423 73.5471 89.8746 73.5471C98.6069 73.5471 105.686 78.3509 105.686 84.2767C105.686 90.2026 98.6069 95.0064 89.8746 95.0064C81.1423 95.0064 74.0634 90.2026 74.0634 84.2767Z" fill="#FFFFFF" fill-rule="nonzero" opacity="1" stroke="#FFFFFF" stroke-linecap="butt" stroke-linejoin="round" stroke-width="10" vectornator:layerName="Oval 3"/>
</g>
<g id="Layer-2" vectornator:layerName="Layer 2">
<g opacity="1" vectornator:layerName="Curve 81">
<path d="M87.214 47.1956C82.3352 45.8079 83.0364 43.6032 85.6816 42.1002" fill="#FFFFFF" fill-rule="nonzero" stroke="none"/>
<path d="M85.375 41.5938C85.293 42.5542 85.215 42.5309 85.125 43.0312C85.0886 42.6008 85.054 42.0611 85.0312 41.7812C85.0197 41.6385 84.8047 41.9489 84.6875 42.0312C84.5737 42.1112 84.453 42.1952 84.3438 42.2812C84.1417 42.4405 83.9259 42.6599 83.7188 42.8125C82.6726 43.5829 81.8017 44.4361 81.7188 45.8125C81.6672 46.6682 81.9477 47.8623 82.4062 48.5938C82.5012 48.7452 82.6435 48.8251 82.75 48.9688C82.9827 49.2828 83.1861 49.6422 83.5 49.875C83.6736 50.0037 84.0148 50.4295 84.0625 50.2188C84.7053 47.378 84.0593 50.2079 84.625 50.5C85.8167 51.4294 87.9452 50.7083 89.375 48.875C90.8048 47.0417 91.0041 44.8044 89.8125 43.875C87.8989 43.2438 88.3533 43.6178 87.875 43.25C87.4968 42.9591 88.7914 43.5465 89.1875 43.8125C89.3265 43.9058 88.8549 43.7838 88.6875 43.7812C88.3463 43.776 88.027 43.8722 87.6875 43.9062C86.9382 43.9813 85.9784 44.1636 85.2188 43.9688C85.1986 43.6925 85.1783 43.4842 85.1562 43.2188C85.3459 42.9936 85.5828 42.7589 85.6875 42.7812C87.0766 43.0776 85.6762 42.7988 85.9688 42.625C86.1531 42.5195 86.1624 42.1898 86 41.9062C85.8377 41.6227 85.5593 41.4882 85.375 41.5938ZM85.0938 43.25C85.061 43.4149 85.0304 43.6591 85 43.7812C84.9043 43.6259 84.9491 43.4434 85.0938 43.25Z" fill="#FFFFFF" stroke="none"/>
</g>
<g opacity="1" vectornator:layerName="Curve 82">
<path d="M93.2663 48.2433C97.2903 46.7091 96.7832 44.0207 94.6684 42.1238" fill="#FFFFFF" fill-rule="nonzero" stroke="none"/>
<path d="M95.375 41.5625C95.1753 41.3077 94.7046 41.3489 94.3125 41.6562C93.9205 41.9636 93.769 42.4327 93.9688 42.6875C93.3422 43.958 93.4803 43.4131 93.3438 43.9375C93.2297 44.3752 93.8539 43.1736 94.2188 42.9062C94.2628 42.874 94.9369 43.724 94.9688 43.875C95.0797 44.4009 94.7792 45.1774 94.4688 45.5938C93.9776 46.2526 93.4661 46.1805 93.2188 45.4688C93.1971 45.4065 93.1807 45.2719 93.125 45.2188C93.0998 45.1947 93.0203 45.1893 93.0312 45.1562C93.3096 44.3145 93.0411 45.1693 92.7188 45.2188C91.6339 45.42 91.0028 46.9247 91.3125 48.5938C91.6222 50.2628 92.7276 51.4513 93.8125 51.25C94.5881 46.4009 93.6801 47.849 94.5938 46.4062C95.3973 45.1373 94.2322 49.423 94.4688 50.9062C94.5166 51.2062 94.9969 50.6054 95.25 50.4375C95.809 50.0665 96.1361 49.804 96.5938 49.3125C97.5289 48.3082 98.3524 47.1433 98.375 45.7188C98.3902 44.7639 97.8803 43.9327 97.1562 43.3438C96.9617 43.1855 96.7486 43.0743 96.5625 42.9062C96.3109 42.6791 96.135 42.3467 95.9062 42.0938C95.8244 42.0033 95.683 41.6935 95.6562 41.8125C94.9517 44.9417 95.639 41.8108 95.375 41.5625Z" fill="#FFFFFF" stroke="none"/>
</g>
</g>
</svg>
